
<svg xmlns="http://www.w3.org/2000/svg" version="1.1" xmlns:xlink="http://www.w3.org/1999/xlink" preserveAspectRatio="none" x="0px" y="0px" width="210px" height="630px" viewBox="0 0 210 630">
<defs>
<g id="Layer0_0_FILL">
<path fill="#FFFFFF" stroke="none" d="
M 48.85 29.9
Q 48.15 29.2 47.2 29.25
L 44.4 29.25 44.4 23.85
Q 44.4 20.45 41.7 17.7 38.8 14.8 34.9 14.75 31 14.75 28.15 17.65 25.4 20.45 25.4 23.85
L 25.4 29.25 22.8 29.25
Q 21.85 29.25 21.15 29.9 20.5 30.55 20.5 31.5
L 20.5 48.8
Q 20.5 49.8 21.15 50.45 21.85 51.1 22.8 51.1
L 47.2 51.1
Q 48.2 51.1 48.85 50.45 49.5 49.8 49.5 48.8
L 49.5 31.6
Q 49.5 30.6 48.85 29.9
M 40.9 23.95
L 40.9 29.35 28.9 29.35 28.9 23.95
Q 28.9 22 30.5 20.3 32.3 18.35 34.9 18.35 37.5 18.35 39.3 20.3 40.9 22 40.9 23.95 Z"/>
</g>

<path id="Duplicate_Items_Folder_Tween_1_0_Layer0_0_1_STROKES" stroke="#FFFFFF" stroke-width="12" stroke-linejoin="round" stroke-linecap="round" fill="none" d="
M -4 4
Q -0.7 4 1.65 6.35 4 8.7 4 12 4 18.65 -0.7 23.3 -5.4 28 -12 28 -21.9 28.1 -28.95 21.1 -35.95 14.1 -36 4.25 -36.05 4.15 -36 4 -36 -9.25 -26.65 -18.6 -17.25 -28 -4 -28 12.55 -28 24.25 -16.25 36 -4.55 36 12 36 31.9 21.95 45.95 7.9 60 -12 60 -35.2 60 -51.6 43.6 -68 27.2 -68 4 -67.95 -22.45 -49.25 -41.2 -30.5 -59.9 -4 -60 10.65 -60 24 -54.35 36.95 -48.85 46.9 -38.9 56.85 -28.95 62.35 -16 68 -2.65 68 12 68 28.3 61.7 43.15 55.65 57.5 44.55 68.6 33.5 79.65 19.15 85.7 4.25 92 -12 92 -29.9 92 -46.25 85.1 -62.05 78.4 -74.25 66.25 -86.4 54.05 -93.1 38.25 -100 21.9 -100 4 -100 -15.5 -92.45 -33.35 -85.2 -50.6 -71.9 -63.85 -58.6 -77.15 -41.4 -84.45 -23.55 -92 -4 -92 17.15 -92 36.45 -83.8 55.15 -75.9 69.55 -61.5 83.9 -47.15 91.8 -28.45 100 -9.15 100 12"/>
</defs>

<g transform="matrix( 1, 0, 0, 1, 0,0) ">
<use xlink:href="#Layer0_0_FILL"/>
</g>

<g transform="matrix( 0.264404296875, 0, 0, 0.264404296875, 36.3,105) ">
<g transform="matrix( 1, 0, 0, 1, 0,0) ">
<use xlink:href="#Duplicate_Items_Folder_Tween_1_0_Layer0_0_1_STROKES"/>
</g>
</g>
</svg>
