<?xml version="1.0" encoding="UTF-8" standalone="no"?>
<svg
   xmlns:dc="http://purl.org/dc/elements/1.1/"
   xmlns:cc="http://creativecommons.org/ns#"
   xmlns:rdf="http://www.w3.org/1999/02/22-rdf-syntax-ns#"
   xmlns:svg="http://www.w3.org/2000/svg"
   xmlns="http://www.w3.org/2000/svg"
   xmlns:sodipodi="http://sodipodi.sourceforge.net/DTD/sodipodi-0.dtd"
   xmlns:inkscape="http://www.inkscape.org/namespaces/inkscape"
   viewBox="0 0 126 150"
   version="1.1"
   id="svg30"
   sodipodi:docname="switch-casque.svg"
   inkscape:version="1.0.1 (3bc2e813f5, 2020-09-07)">
  <metadata
     id="metadata36">
    <rdf:RDF>
      <cc:Work
         rdf:about="">
        <dc:format>image/svg+xml</dc:format>
        <dc:type
           rdf:resource="http://purl.org/dc/dcmitype/StillImage" />
        <dc:title></dc:title>
      </cc:Work>
    </rdf:RDF>
  </metadata>
  <defs
     id="defs34" />
  <sodipodi:namedview
     pagecolor="#ffffff"
     bordercolor="#666666"
     borderopacity="1"
     objecttolerance="10"
     gridtolerance="10"
     guidetolerance="10"
     inkscape:pageopacity="0"
     inkscape:pageshadow="2"
     inkscape:window-width="1920"
     inkscape:window-height="1018"
     id="namedview32"
     showgrid="false"
     inkscape:zoom="8"
     inkscape:cx="59.590819"
     inkscape:cy="66.277576"
     inkscape:window-x="-6"
     inkscape:window-y="-6"
     inkscape:window-maximized="1"
     inkscape:current-layer="svg30" />
  <path
     d="m7.86 20.29a1.64 1.64 0 0 0 -1.64 1.64v32.19l3.28-2.25v-29.94a1.65 1.65 0 0 0 -1.64-1.64z"
     fill="#d2d2d2"
     id="path2" />
  <path
     d="m17.31 46.5-11.09 7.62v27.24h6.67v-9.72c0-2.15-.72-6.69 3.26-6.69z"
     fill="#895e08"
     id="path4" />
  <path
     d="m118.71 20.29a1.64 1.64 0 0 0 -1.64 1.64v29.94l3.28 2.25v-32.19a1.65 1.65 0 0 0 -1.64-1.64z"
     fill="#d2d2d2"
     id="path6" />
  <path
     d="m109.25 46.5 11.1 7.62v27.24h-6.68v-9.72c0-2.15.73-6.69-3.25-6.69z"
     fill="#895e08"
     id="path8" />
  <path
     d="m16.15 65c-4 0-3.26 4.54-3.26 6.69v16.8a4 4 0 0 0 3.88 3.51h1.51v-27z"
     fill="#ffc61a"
     id="path10" />
  <path
     d="m0 0h126v150h-126z"
     fill="none"
     opacity=".6"
     id="path12" />
  <path
     d="m94.73 44.18c-20.68 10.82-35.73 13.61-34.9 12.46s10.35-10.82 7.32-9a108.83 108.83 0 0 1 -38.66 13.81c-.95 11.81-.92 13.32-.32 19.92.53 5.95 2.61 8.54 3.16 11.74 1.24 7.19.51 15.17 1.49 21.2.65 10.4 5.79 15.25 5.79 15.25 3.18 3 2.47 2.28 6.48 7 7.33 8.66 12.1 12.44 17 12.41 5.14 0 12.23-7.19 14.71-9.41s5.36-5.53 9.4-9.8c0 0 3.06-2.67 4.71-15.48.94-6.09.49-13.23 3.52-21.53 3-8.14 2.71-11.46 2.71-11.46 1-8.54 1-29.48 1-29.48-.04-1.06.2-9.52-3.41-7.63z"
     fill="#d2d2d2"
     id="path14" />
  <path
     d="m102.63 59.17a5.86 5.86 0 0 0 -4.63 2.56c-.11 6.62-.36 14.94-.9 19.59a13.53 13.53 0 0 1 -.29 3v8c0 2.28 2.41 5.81 5.39 5.81a6.27 6.27 0 0 0 6.23-5.81v-27.67c.01-3.1-1.94-5.48-5.8-5.48z"
     fill="#167085"
     id="path16" />
  <path
     d="m28.17 81.37c-.59-6.6-.63-8.11.32-19.88a5.86 5.86 0 0 0 -4.71-2.29 5.19 5.19 0 0 0 -5.5 5.45v27.67a6.5 6.5 0 0 0 6.23 5.81c3 0 5.39-3.53 5.39-5.81v-3.63a25.8 25.8 0 0 1 -1.73-7.32z"
     fill="#167085"
     id="path18" />
  <path
     d="m110.42 65h-2v27h1.35a4 4 0 0 0 3.88-3.58v-16.78c.02-2.15.75-6.64-3.23-6.64z"
     fill="#ffc61a"
     id="path20" />
  <path
     d="m109.25 46.5 7.81 5.36c-2.49-25.13-10.71-33.29-20.24-40.36-9.37-6.94-20.82-10.18-32.6-10.5h-.94-.94c-11.8.3-23.23 3.54-32.59 10.48-9.54 7.09-17.75 15.25-20.24 40.38l7.8-5.36a63.45 63.45 0 0 1 1.32-6.93c3.57-10.75 9.48-17.91 16-22.65 10.37-7.49 22.17-8.92 28.65-9.05 6.48.13 18.33 1.56 28.72 9.13 6.51 4.74 12.41 11.9 16 22.65a61.37 61.37 0 0 1 1.32 6.92z"
     fill="#ffc61a"
     id="path22" />
  <path
     d="m32.81 114.31c-1-6-.25-14-1.49-21.2a24.57 24.57 0 0 0 -1.43-4.42v3.63c0 2.28-2.41 5.81-5.39 5.81a6.5 6.5 0 0 1 -6.23-5.81v-.32h-1.5a4 4 0 0 1 -3.88-3.58v-7.06h-3.07c-3.82 10.14-9.97 13.35-9.26 13.36 8.15.06 11.44-3.57 11.44-3.57-1.78 5.52-12.18 11-11.27 11.17a22.79 22.79 0 0 0 16.62-4.18c1.47 8.53 4.91 22.69 12.09 27.92.68.55.14-2.81.14-3.56.55.36 3.05 4.56 9 7.06.02 0-5.12-4.85-5.77-15.25z"
     id="path24" />
  <path
     d="m109.79 92h-1.35v.3a6.27 6.27 0 0 1 -6.23 5.81c-3 0-5.39-3.53-5.39-5.81v-8a52.05 52.05 0 0 1 -2.42 8.5c-3 8.3-2.58 15.44-3.52 21.53-1.65 12.81-4.71 15.48-4.71 15.48 5.89-2.65 8.12-8.18 8.27-7.59.33 1.26-.61 3.47-.63 5.55a22 22 0 0 0 7.57-9c.52 1.23.55 2.86 1.21 4.1 0 0 8.9-14.46 10-25.8.25-2.64.36-4.81.37-6.66a4.06 4.06 0 0 1 -3.17 1.59z"
     id="path26" />
  <path
     d="m98.1 51.84s0 4.35-.09 9.89a5.86 5.86 0 0 1 4.62-2.56c3.86 0 5.81 2.38 5.81 5.48v.35h2l-1.17-18.43a61.37 61.37 0 0 0 -1.32-6.92c-3.59-10.8-9.49-17.96-15.95-22.65-10.39-7.57-22.24-9-28.72-9.13-6.48.13-18.28 1.56-28.66 9.13-6.51 4.74-12.42 11.9-16 22.65a63.45 63.45 0 0 0 -1.32 6.93l-1.15 18.42h2.13v-.3a5.19 5.19 0 0 1 5.5-5.45 5.86 5.86 0 0 1 4.71 2.29 108.83 108.83 0 0 0 38.66-13.91c3-1.81-6.53 8-7.32 9s14.22-1.63 34.9-12.45c3.61-1.89 3.37 6.57 3.37 7.66z"
     id="path28" />
  <path
     style="fill:#003056;fill-opacity:1;stroke:none;stroke-width:0.0623918"
     d="m 6.2278155,67.751516 v -13.59203 l 5.5049005,-3.780054 c 3.027695,-2.079029 5.512345,-3.772608 5.521445,-3.763508 0.0091,0.0091 -0.235912,4.029218 -0.544471,8.933596 -0.308558,4.904378 -0.561142,9.022337 -0.561298,9.15102 l -2.84e-4,0.23397 h -0.298851 c -0.356436,0 -0.93997,0.143118 -1.309995,0.321291 -0.60632,0.291953 -1.145687,0.963136 -1.410959,1.755784 -0.289794,0.865925 -0.294617,0.997446 -0.288142,7.858815 l 0.0061,6.473146 H 9.5370426 6.2278155 Z"
     id="path1444" />
  <path
     style="fill:#00a1d8;fill-opacity:1;stroke:none;stroke-width:0.125"
     d="M 9.8083601,49.715141 C 11.207347,37.58068 14.297701,28.340361 19.162296,21.746391 23.400608,16.00135 30.840189,10.010883 37.898148,6.6599948 52.35185,-0.20215172 70.013847,-0.74896058 85.225873,5.1947459 90.9368,7.4261431 96.214499,10.717148 101.46636,15.321797 c 8.76227,7.682449 13.22777,17.652783 15.26086,34.073576 0.11229,0.90694 0.18605,1.78226 0.16391,1.945154 -0.0369,0.271601 -0.34519,0.08656 -3.71591,-2.230442 -2.02161,-1.389638 -3.71616,-2.602458 -3.76566,-2.695154 -0.0495,-0.0927 -0.15759,-0.646665 -0.2402,-1.23104 -0.2346,-1.659574 -0.87425,-4.711003 -1.21843,-5.8125 -1.20419,-3.85388 -3.50548,-8.524856 -6.01088,-12.200429 C 99.146653,23.072881 95.15891,19.067023 91.073234,16.254781 84.055014,11.424017 75.295602,8.5636191 65.540162,7.9169215 60.023613,7.5512243 53.004432,8.5862081 46.755863,10.686682 c -6.980204,2.346414 -12.591936,5.823953 -17.470499,10.826305 -4.194624,4.30106 -7.27993,9.151846 -9.689092,15.233404 -1.092007,2.756602 -1.347443,3.787406 -2.28948,9.239104 -0.08261,0.478055 -0.169943,0.547937 -3.866433,3.09375 -2.080055,1.432555 -3.799256,2.604646 -3.8204473,2.604646 -0.021191,0 0.063611,-0.885938 0.1884484,-1.96875 z"
     id="path1446" />
  <path
     style="fill:#00a1d8;fill-opacity:1;stroke:none;stroke-width:0.125"
     d="m 15.712911,91.756616 c -1.099704,-0.344193 -2.08325,-1.285241 -2.558266,-2.447725 -0.150196,-0.367568 -0.178772,-2.135875 -0.178772,-11.0625 0,-11.690494 -0.03663,-11.104792 0.759694,-12.14882 0.574633,-0.753383 1.165883,-0.960713 2.896556,-1.015719 l 1.53125,-0.04867 v 13.450353 13.450354 l -0.96875,-0.0084 c -0.532813,-0.0046 -1.199583,-0.08061 -1.481712,-0.168912 z"
     id="path1448" />
  <path
     style="fill:#00a1d8;fill-opacity:1;stroke:none;stroke-width:0.125"
     d="m 108.53837,78.511681 v -13.45279 l 1.21875,6.97e-4 c 1.85749,0.0011 2.69092,0.338624 3.24794,1.3155 0.58407,1.024306 0.57895,0.91138 0.54606,12.058803 l -0.0312,10.5625 -0.28701,0.63581 c -0.35691,0.790662 -1.00588,1.450596 -1.85499,1.886346 -0.51739,0.265518 -0.87797,0.346126 -1.74582,0.390279 l -1.09375,0.05564 z"
     id="path1450" />
  <path
     style="fill:#00a1d8;fill-opacity:1;stroke:none;stroke-width:0.0220971"
     d="m 13.042123,87.887937 c -0.05993,-0.48652 -0.07523,-17.167697 -0.01721,-18.754902 0.05355,-1.464984 0.12822,-2.046335 0.312377,-2.432201 0.159962,-0.33517 0.694511,-0.959696 0.982484,-1.147859 0.509186,-0.332704 1.072434,-0.423846 2.977704,-0.481838 l 0.856274,-0.02606 -1.2e-5,11.473912 -1.1e-5,11.473912 h -2.54934 -2.54934 z"
     id="path1452" />
  <path
     style="fill:#00a1d8;fill-opacity:1;stroke:none;stroke-width:0.0220971"
     d="m 13.041816,87.898986 c -0.0596,-0.420605 -0.07495,-17.211225 -0.01717,-18.777 0.05345,-1.448324 0.125555,-2.012641 0.308693,-2.415794 0.08621,-0.189771 0.435651,-0.649572 0.676365,-0.889964 0.39871,-0.398179 0.810041,-0.563388 1.639779,-0.658614 0.294002,-0.03374 1.017285,-0.06928 1.979464,-0.09727 l 0.524825,-0.01527 -1.9e-5,11.473912 -1.8e-5,11.473912 h -2.549304 -2.549304 z"
     id="path1454" />
  <path
     style="fill:#00a1d8;fill-opacity:1;stroke:none;stroke-width:0.0220971"
     d="m 18.275181,76.502413 c 0,-6.325843 0.0025,-8.913688 0.0056,-5.750767 0.0031,3.162922 0.0031,8.338612 0,11.501534 -0.0031,3.162922 -0.0056,0.575077 -0.0056,-5.750767 z"
     id="path1456" />
  <path
     style="fill:#00a1d8;fill-opacity:1;stroke:none;stroke-width:0.00552427"
     d="m 18.166823,71.948333 v -3.745456 h 0.05616 0.05616 l -0.0037,1.16424 c -0.002,0.640332 -0.0037,2.325787 -0.0037,3.745456 l -2e-6,2.581216 h -0.05248 -0.05248 z"
     id="path1460" />
  <path
     style="fill:#00a1d8;fill-opacity:1;stroke:none;stroke-width:0.00552427"
     d="m 18.166823,71.948333 v -3.745456 h 0.05615 0.05615 l -0.0037,0.448379 c -0.002,0.246608 -0.0037,1.932064 -0.0037,3.745456 v 3.297077 h -0.05248 -0.05248 z"
     id="path1462" />
  <path
     style="fill:#00a1d8;fill-opacity:1;stroke:none;stroke-width:0.00552427"
     d="m 108.42516,79.157264 v -3.745456 h 0.0552 0.0552 v 3.745456 3.745456 h -0.0552 -0.0552 z"
     id="path1464" />
  <path
     style="fill:#00a1d8;fill-opacity:1;stroke:none;stroke-width:0.00552427"
     d="m 113.54236,82.11413 c 0.002,-0.433724 0.006,-1.642504 0.009,-2.686177 0.003,-1.043673 0.007,-2.374263 0.009,-2.956866 l 0.004,-1.059279 h 0.0407 0.0407 v 3.745456 3.745456 h -0.053 -0.053 z"
     id="path1466" />
  <path
     style="fill:#00a1d8;fill-opacity:1;stroke:none;stroke-width:0.0220971"
     d="m 108.42623,70.199227 v -5.192815 l 1.07723,7.5e-5 c 0.59248,4.2e-5 1.19159,0.01064 1.33135,0.02355 1.43432,0.132501 2.29925,0.909656 2.66116,2.391105 0.0811,0.332147 0.12651,0.608742 0.17115,1.043463 0.0341,0.331965 0.0337,1.719353 -6.5e-4,2.386485 -0.0149,0.2895 -0.0251,1.306197 -0.0252,2.513544 -1.1e-4,1.694269 -0.005,2.027408 -0.0302,2.027408 -0.0251,0 -0.0322,-0.492212 -0.0433,-2.99968 -0.02,-4.541791 -0.0554,-5.045956 -0.40278,-5.743083 -0.45571,-0.914452 -1.01023,-1.334257 -1.9767,-1.496475 -0.43731,-0.0734 -0.61324,-0.08377 -1.61861,-0.09539 l -1.03304,-0.01194 v 5.173283 5.173284 h -0.0552 -0.0552 z"
     id="path1468" />
  <path
     style="fill:#00a1d8;fill-opacity:1;stroke:none;stroke-width:0.0220971"
     d="m 108.42623,87.446004 v -4.540952 h 0.0552 0.0552 v 4.529903 4.529903 l 0.12706,-4.4e-5 c 0.2083,-6.7e-5 1.30387,-0.06373 1.53023,-0.08893 0.46287,-0.05152 0.76715,-0.139492 1.16009,-0.335393 0.45911,-0.228886 0.8349,-0.507823 1.20166,-0.891967 0.30176,-0.316055 0.52283,-0.653591 0.74381,-1.135653 0.17957,-0.391719 0.23241,-0.462874 0.13024,-0.175387 -0.4361,1.227173 -1.48824,2.192456 -2.7447,2.518113 -0.42152,0.109257 -0.67534,0.131356 -1.5087,0.131356 h -0.75017 z"
     id="path1470" />
  <path
     style="fill:#00a1d8;fill-opacity:1;stroke:none;stroke-width:0.0220971"
     d="m 113.53266,87.711169 c -0.001,-0.692744 0.005,-2.057515 0.0127,-3.032826 0.0141,-1.700218 0.0163,-1.773291 0.0552,-1.773291 0.0391,0 0.0406,0.09755 0.0406,2.77029 0,2.863564 -0.002,2.933499 -0.0873,3.229069 -0.0114,0.03952 -0.02,-0.442334 -0.0211,-1.193242 z"
     id="path1472" />
  <path
     style="fill:#00a1d8;fill-opacity:1;stroke:none;stroke-width:0.0078125"
     d="m 12.892616,72.755133 c -0.0026,-1.240885 -0.0056,-1.584549 -0.01587,-1.822266 -0.02733,-0.634613 -0.02904,-0.737807 -0.02107,-1.275349 0.01321,-0.890963 0.02589,-1.210068 0.05845,-1.470745 0.09596,-0.768276 0.282508,-1.373239 0.571642,-1.853772 0.434492,-0.722114 1.105234,-1.150674 2.006727,-1.282167 0.309822,-0.04519 0.389933,-0.04749 1.654297,-0.04758 l 1.130859,-7.5e-5 v 1.597656 1.597656 h -0.05469 -0.05469 v -1.58543 -1.58543 l -0.06836,0.0037 c -0.0376,0.002 -0.405859,0.014 -0.818359,0.0266 -0.817117,0.02496 -0.860442,0.0266 -1.148438,0.04349 -1.187801,0.06964 -1.755946,0.267059 -2.213016,0.768959 -0.120882,0.132738 -0.401316,0.491975 -0.491899,0.630123 -0.352283,0.537269 -0.422323,1.302053 -0.447423,4.885502 -0.0041,0.59082 -0.0076,1.484668 -0.0077,1.986328 l -1.47e-4,0.91211 h -0.03854 -0.03854 z"
     id="path1476" />
  <path
     style="fill:#00a1d8;fill-opacity:1;stroke:none;stroke-width:0.0078125"
     d="m 12.896103,76.78443 v -2.5 h 0.03906 0.03906 v 2.5 2.5 h -0.03906 -0.03906 z"
     id="path1478" />
  <path
     style="fill:#00a1d8;fill-opacity:1;stroke:none;stroke-width:0.0078125"
     d="m 18.169541,79.366461 v -3.667969 h 0.05078 0.05078 v 3.667969 3.667969 h -0.05078 -0.05078 z"
     id="path1480" />
  <path
     style="fill:#00a1d8;fill-opacity:1;stroke:none;stroke-width:0.0078125"
     d="m 12.896103,82.72193 v -3.4375 h 0.03906 0.03906 v 1.769106 c 0,1.818812 0.01167,4.81838 0.01945,5.002378 l 0.0044,0.103516 h -0.05098 -0.05098 z"
     id="path1482" />
  <path
     style="fill:#00a1d8;fill-opacity:1;stroke:none;stroke-width:0.0078125"
     d="m 18.169541,86.47193 v -3.4375 h 0.0495 0.0495 l 0.0052,0.427734 c 0.0028,0.235254 0.0052,1.782129 0.0052,3.4375 l 8e-6,3.009766 h -0.05469 -0.05469 z"
     id="path1484" />
  <path
     style="fill:#003056;fill-opacity:1;stroke:none;stroke-width:0.0078125"
     d="m 16.622666,91.99006 c -0.7422,-0.0544 -1.391391,-0.276481 -1.998037,-0.683497 -0.342274,-0.229641 -0.689587,-0.560026 -0.945882,-0.899782 -0.4027,-0.533837 -0.665478,-1.162077 -0.763555,-1.825476 l -0.01906,-0.128907 -1.6e-5,-1.146484 -1.6e-5,-1.146484 h 0.05078 0.05078 l 2.1e-5,0.197265 c 4.3e-5,0.397931 0.02211,1.453965 0.03939,1.884766 0.02116,0.527671 0.05625,0.892589 0.0984,1.023437 0.03104,0.09634 0.123946,0.298661 0.21082,0.459068 0.423629,0.782208 1.056246,1.416119 1.795603,1.799279 0.216667,0.112284 0.466291,0.212051 0.641664,0.256453 0.232,0.05874 0.632027,0.110939 1.053945,0.137531 0.07305,0.0046 0.320899,0.01003 0.550782,0.01205 0.229882,0.002 0.499707,0.0051 0.599609,0.0069 l 0.181641,0.0032 V 90.924439 89.9095 h 0.05469 0.05469 v 1.042968 1.042969 l -0.810547,-0.0014 c -0.445801,-7.51e-4 -0.826367,-0.0025 -0.845703,-0.0039 z"
     id="path1486" />
  <path
     style="fill:#003056;fill-opacity:1;stroke:none;stroke-width:0.0078125"
     d="m 9.5360254,81.348883 3.3157036,-0.002 -0.0056,-4.140617 -0.0056,-4.140615 h 0.02389 0.02389 v 4.144531 4.144531 l -3.3339845,-0.0019 -3.3339844,-0.0019 z"
     id="path1488" />
  <path
     style="fill:#003056;fill-opacity:1;stroke:none;stroke-width:0.0078125"
     d="m 12.842447,72.012945 c 5.67e-4,-0.579004 0.0032,-1.147656 0.0059,-1.263672 l 0.0048,-0.210937 0.01039,0.28125 c 0.01853,0.501378 0.02406,0.854359 0.02442,1.55664 l 3.48e-4,0.689454 h -0.02344 -0.02344 z"
     id="path1490" />
  <path
     style="fill:#003056;fill-opacity:1;stroke:none;stroke-width:0.00390625"
     d="m 12.900167,68.219583 c -9.34e-4,-0.0366 0.01704,-0.241939 0.03283,-0.374961 0.02566,-0.216269 0.0627,-0.398248 0.120915,-0.594136 0.029,-0.09759 0.09701,-0.300717 0.126133,-0.376734 0.114832,-0.299758 0.273396,-0.58864 0.459939,-0.837948 0.09317,-0.12452 0.158357,-0.200597 0.265439,-0.309787 0.194547,-0.198378 0.393146,-0.34625 0.613388,-0.456715 0.32222,-0.161612 0.84575,-0.302647 1.220703,-0.328848 0.03115,-0.0022 0.136182,-0.004 0.233399,-0.004 0.154531,-3.3e-5 0.176758,6.98e-4 0.176758,0.0058 0,0.0049 -0.0079,0.0059 -0.04785,0.0059 -0.05792,2.8e-5 -0.214236,0.0063 -0.291992,0.01179 -0.745472,0.05224 -1.351393,0.285198 -1.810547,0.696099 -0.513202,0.45927 -0.847275,1.134877 -1.02136,2.065529 -0.02632,0.140712 -0.04191,0.244418 -0.07371,0.490234 -0.0034,0.02631 -0.0036,0.02661 -0.004,0.0078 z"
     id="path1492" />
  <path
     style="fill:#003056;fill-opacity:1;stroke:none;stroke-width:0.00390625"
     d="m 16.15037,64.795794 c -3.9e-4,-0.05859 0.0026,-0.159129 0.0072,-0.244141 0.01699,-0.312576 0.06194,-1.067016 0.12892,-2.164062 0.01928,-0.315821 0.04031,-0.661231 0.04674,-0.767579 0.0064,-0.106347 0.01271,-0.204345 0.01398,-0.217773 0.0023,-0.02385 0.0026,-0.02441 0.01371,-0.02441 0.0063,0 0.01141,0.0012 0.01141,0.0027 0,0.0052 -0.218429,3.479699 -0.219859,3.497254 -7.88e-4,0.0097 -0.0017,-0.02725 -0.0021,-0.08203 z"
     id="path1494" />
  <path
     style="fill:#003056;fill-opacity:1;stroke:none;stroke-width:0.00390625"
     d="m 16.349315,61.369882 c 0,-0.0086 0.03263,-0.538845 0.09382,-1.524396 0.02144,-0.345423 0.03899,-0.634143 0.03899,-0.641601 0,-0.01289 6.72e-4,-0.01356 0.01367,-0.01356 0.0096,0 0.01367,0.0018 0.01367,0.0059 0,0.0097 -0.132393,2.118347 -0.135071,2.151292 -0.0025,0.03022 -0.0025,0.03027 -0.01377,0.03027 -0.0088,0 -0.01131,-0.0018 -0.01131,-0.0079 z"
     id="path1496" />
  <path
     style="fill:#003056;fill-opacity:1;stroke:none;stroke-width:0.00390625"
     d="m 16.485186,59.171773 c 6.07e-4,-0.01021 0.03532,-0.567345 0.07715,-1.238086 0.04182,-0.670741 0.07604,-1.224892 0.07604,-1.231446 0,-0.01101 10e-4,-0.01192 0.01367,-0.01192 0.01227,0 0.01367,0.0011 0.01367,0.01063 0,0.0058 -0.02987,0.487046 -0.06637,1.069336 -0.03651,0.58229 -0.07079,1.13078 -0.0762,1.218866 -0.0054,0.08809 -0.01082,0.169385 -0.01203,0.180664 -0.0022,0.01997 -0.0025,0.02051 -0.01462,0.02051 -0.01236,3e-6 -0.01241,-7.6e-5 -0.01131,-0.01855 z"
     id="path1498" />
  <path
     style="fill:#003056;fill-opacity:1;stroke:none;stroke-width:0.00390625"
     d="m 16.701614,55.70888 c 0.03386,-0.539795 0.06908,-1.101856 0.07826,-1.249024 l 0.0167,-0.267578 0.0127,-0.0012 c 0.0085,-8.16e-4 0.01273,4.85e-4 0.01279,0.0039 2.48e-4,0.01303 -0.152951,2.471486 -0.154707,2.48267 -0.0018,0.0113 -0.0034,0.0127 -0.01465,0.0127 h -0.01266 z"
     id="path1500" />
  <path
     style="fill:#003056;fill-opacity:1;stroke:none;stroke-width:0.00390625"
     d="m 16.798534,54.177078 c 0,-0.0073 0.02897,-0.477941 0.06437,-1.045899 0.08946,-1.435148 0.107502,-1.727326 0.107502,-1.74125 0,-0.01123 9.88e-4,-0.0121 0.01367,-0.0121 0.0104,0 0.01368,0.0016 0.01371,0.0068 7.5e-5,0.01498 -0.172196,2.773587 -0.174173,2.789062 -0.002,0.01528 -0.003,0.0166 -0.0136,0.0166 -0.01045,0 -0.01148,-0.0012 -0.01148,-0.01325 z"
     id="path1502" />
  <path
     style="fill:#003056;fill-opacity:1;stroke:none;stroke-width:0.00390625"
     d="m 16.973083,51.35927 c 8.4e-4,-0.0102 0.01111,-0.175 0.02281,-0.366211 0.01171,-0.191211 0.04148,-0.677246 0.06616,-1.080078 0.02468,-0.402832 0.06071,-0.995215 0.08005,-1.316406 0.01934,-0.321192 0.03629,-0.600244 0.03767,-0.620117 l 0.0025,-0.03613 h 0.01516 c 0.0095,0 0.01517,0.0018 0.01519,0.0049 8.5e-5,0.01223 -0.211216,3.393954 -0.2132,3.412109 -0.0022,0.02012 -0.0025,0.02051 -0.01506,0.02051 h -0.01282 z"
     id="path1504" />
  <path
     style="fill:#003056;fill-opacity:1;stroke:none;stroke-width:0.00390625"
     d="m 12.638569,49.732317 1.91e-4,-0.02051 0.223442,-0.153067 c 0.122893,-0.08419 1.17266,-0.805314 2.332816,-1.602506 1.442534,-0.991224 2.109778,-1.44758 2.110649,-1.443558 7e-4,0.0032 -5.79e-4,0.01772 -0.0028,0.03219 -0.0023,0.01447 -0.02263,0.32514 -0.04527,0.690375 -0.02263,0.365234 -0.04213,0.673291 -0.04334,0.68457 l -0.0022,0.02051 h -0.01568 -0.01568 l 0.0024,-0.02832 c 0.0039,-0.04563 0.04947,-0.828645 0.06465,-1.110352 0.0092,-0.171232 0.0095,-0.185547 0.0031,-0.185547 -0.01504,0 -1.115051,0.745825 -2.862453,1.94079 -0.557754,0.381421 -1.591387,1.089317 -1.684368,1.153561 -0.03373,0.0233 -0.06229,0.04237 -0.06348,0.04237 -0.0012,0 -0.0021,-0.0092 -0.002,-0.02051 z"
     id="path1506" />
  <path
     style="fill:#00a1d8;fill-opacity:1;stroke:none;stroke-width:0.0110485"
     d="m 9.5215583,51.817349 c 0,-0.06314 0.1325245,-1.304002 0.2162002,-2.024341 0.4131455,-3.556647 0.9496025,-6.798815 1.6242845,-9.816631 0.122896,-0.549707 0.108926,-0.502709 0.149424,-0.502709 0.02681,0 0.03226,0.0038 0.02742,0.01933 -0.01587,0.05077 -0.225787,0.988778 -0.315862,1.411451 -0.455566,2.137705 -0.839381,4.364988 -1.159495,6.728563 -0.1934908,1.428645 -0.4096942,3.326824 -0.4490879,3.942808 l -0.00768,0.120012 0.02645,-0.01407 c 0.1837122,-0.09777 5.2893419,-3.604495 6.3185959,-4.33984 0.976643,-0.697758 1.254969,-0.952436 1.330034,-1.217031 0.0095,-0.03342 0.05738,-0.291958 0.106434,-0.574524 0.541666,-3.119945 0.834034,-4.570279 1.160389,-5.756291 0.09073,-0.329735 0.08785,-0.320408 0.09902,-0.320408 0.0055,0 0.0026,0.02113 -0.0066,0.04696 -0.03107,0.08784 -0.242595,0.974716 -0.380125,1.593743 -0.364301,1.639734 -0.675893,3.362636 -0.896177,4.955281 -0.04237,0.30635 -0.06192,0.419048 -0.07501,0.432461 -0.0097,0.01 -0.661552,0.460266 -1.448485,1.000644 -1.603218,1.100912 -4.712536,3.237298 -5.675566,3.899634 -0.347548,0.239031 -0.634672,0.434601 -0.6380531,0.434601 -0.00338,0 -0.00615,-0.0088 -0.00615,-0.01964 z"
     id="path1508" />
  <path
     style="fill:#00a1d8;fill-opacity:1;stroke:none;stroke-width:0.0110485"
     d="m 11.477172,39.466175 c -1.2e-5,-0.0011 0.03503,-0.150238 0.07788,-0.331456 0.787362,-3.330317 1.728479,-6.298092 2.864464,-9.032973 l 0.145705,-0.350787 0.04143,-5e-6 c 0.02279,-2e-6 0.04143,0.0031 0.04143,0.0069 0,0.0038 -0.0676,0.169136 -0.150229,0.367364 -1.156613,2.774843 -2.178473,6.005461 -2.948938,9.323092 -0.0045,0.0192 -0.01271,0.02392 -0.0387,0.0221 -0.01816,-0.0013 -0.03304,-0.0032 -0.03305,-0.0043 z"
     id="path1510" />
  <path
     style="fill:#00a1d8;fill-opacity:1;stroke:none;stroke-width:0.0110485"
     d="m 18.641924,39.459857 c 0.0025,-0.0076 0.01775,-0.05856 0.0338,-0.113247 0.285681,-0.973793 0.838559,-2.441414 1.527516,-4.054816 0.728279,-1.705484 1.586262,-3.440683 2.45837,-4.971844 0.294469,-0.517001 0.326514,-0.569 0.350646,-0.569 0.01192,0 0.02167,0.0021 0.02167,0.0046 0,0.0025 -0.05879,0.105684 -0.130639,0.229257 -0.756428,1.300939 -1.476765,2.693223 -2.136945,4.130338 -0.73981,1.610458 -1.435635,3.364647 -2.02146,5.096141 -0.04883,0.144322 -0.09301,0.262403 -0.09818,0.262403 -0.0052,0 -0.0073,-0.0062 -0.0048,-0.01381 z"
     id="path1512" />
  <path
     style="fill:#00a1d8;fill-opacity:1;stroke:none;stroke-width:0.0110485"
     d="m 14.570743,29.745971 c 0,-0.0083 0.204709,-0.480805 0.325714,-0.751846 1.123256,-2.516024 2.431901,-4.819042 3.941089,-6.935724 l 0.187093,-0.262402 h 0.04418 c 0.0526,0 0.06031,-0.01671 -0.08408,0.1823 -0.756498,1.042649 -1.519864,2.235527 -2.195348,3.430573 -0.392901,0.695109 -0.627269,1.138326 -1.02533,1.93902 -0.388713,0.781888 -0.701903,1.455355 -1.005769,2.162752 l -0.103224,0.240306 h -0.04216 c -0.02319,0 -0.04216,-0.0022 -0.04216,-0.005 z"
     id="path1514" />
  <path
     style="fill:#00a1d8;fill-opacity:1;stroke:none;stroke-width:0.0110485"
     d=""
     id="path1516" />
  <path
     style="fill:#00a1d8;fill-opacity:1;stroke:none;stroke-width:0.0110485"
     d="m 19.034354,21.790011 c 0,-0.009 0.277903,-0.38517 0.484258,-0.655453 0.710541,-0.930656 1.429103,-1.788714 2.221493,-2.652751 0.796374,-0.868384 1.79539,-1.861173 2.721626,-2.704663 l 0.184843,-0.16833 0.06375,2.56e-4 0.06375,2.56e-4 -0.04995,0.0467 c -0.02747,0.02568 -0.189056,0.176325 -0.359078,0.334757 -0.797986,0.743585 -1.724884,1.67017 -2.441757,2.440933 -1.00673,1.082408 -1.943602,2.200449 -2.701088,3.223413 -0.101612,0.137223 -0.105392,0.140869 -0.14608,0.140869 -0.02297,0 -0.04177,-0.0027 -0.04177,-0.006 z"
     id="path1518" />
  <path
     style="fill:#00a1d8;fill-opacity:1;stroke:none;stroke-width:0.0110485"
     d="m 23.0047,29.727357 c 0.03757,-0.07019 0.369997,-0.618344 0.555069,-0.915261 1.161558,-1.863534 2.419399,-3.576303 3.845331,-5.236089 0.324008,-0.377145 0.670981,-0.766325 0.67745,-0.759856 0.003,0.003 -0.07529,0.09661 -0.173948,0.208037 -1.696521,1.916027 -3.256042,4.049156 -4.650383,6.360844 -0.170958,0.283432 -0.222687,0.361172 -0.242234,0.364037 -0.02274,0.0033 -0.0237,0.0015 -0.01129,-0.02171 z"
     id="path1520" />
  <path
     style="fill:#00a1d8;fill-opacity:1;stroke:none;stroke-width:0.0110485"
     d="m 24.656209,15.599834 c 0.0058,-0.0049 0.0801,-0.07105 0.165176,-0.146911 1.201756,-1.071638 2.49217,-2.123458 4.121107,-3.359126 0.886045,-0.67213 1.643408,-1.221496 2.32636,-1.687463 0.144877,-0.09885 0.151591,-0.102091 0.204398,-0.09875 l 0.0546,0.0035 -0.259641,0.175841 c -2.185969,1.480448 -4.400877,3.223355 -6.380534,5.02083 l -0.110485,0.100318 -0.06574,3.93e-4 c -0.03616,2.17e-4 -0.06102,-0.0036 -0.05524,-0.0086 z"
     id="path1522" />
  <path
     style="fill:#00a1d8;fill-opacity:1;stroke:none;stroke-width:0.0110485"
     d="m 31.42381,10.301314 c 0.01075,-0.0098 0.716549,-0.4774711 0.888487,-0.5887136 1.768726,-1.1443492 3.699469,-2.2232434 5.607136,-3.1332531 0.33024,-0.1575333 0.871908,-0.4097647 0.959195,-0.4466557 l 0.03664,-0.015486 -0.0035,0.034556 c -0.0034,0.033909 -0.0095,0.037296 -0.323904,0.1808603 -2.284024,1.0429285 -4.425143,2.239155 -6.748584,3.7703811 -0.297508,0.196068 -0.309076,0.20251 -0.363681,0.20251 -0.03102,0 -0.05433,-0.0019 -0.0518,-0.0042 z"
     id="path1524" />
  <path
     style="fill:#00a1d8;fill-opacity:1;stroke:none;stroke-width:0.0110485"
     d="m 30.824237,20.020912 c 0.0083,-0.0101 0.124544,-0.118577 0.258232,-0.241055 3.444763,-3.155929 7.242343,-5.615687 11.628592,-7.532041 0.592341,-0.258794 1.532955,-0.645049 1.543982,-0.634023 0.01835,0.01836 -0.03356,0.04543 -0.274888,0.143359 -1.582852,0.642318 -3.321434,1.469562 -4.815677,2.291373 -2.614653,1.438019 -4.963198,3.05707 -7.142007,4.923592 -0.335642,0.287534 -0.788893,0.68889 -1.047276,0.927365 -0.137797,0.127181 -0.191105,0.170062 -0.150958,0.12143 z"
     id="path1526" />
  <path
     style="fill:#00a1d8;fill-opacity:1;stroke:none;stroke-width:0.0110485"
     d=""
     id="path1528" />
  <path
     style="fill:#00a1d8;fill-opacity:1;stroke:none;stroke-width:0.0110485"
     d="m 38.915284,6.1488451 c 0.0042,-0.035476 0.0085,-0.038124 0.199458,-0.1233991 5.182354,-2.313892 10.797094,-3.8329079 16.870138,-4.5640604 0.381791,-0.045965 0.367416,-0.045299 0.367416,-0.017015 0,0.026761 -0.0057,0.028123 -0.209922,0.050241 -0.658959,0.071363 -1.796217,0.2275728 -2.657175,0.3649811 -4.931953,0.7871361 -9.807635,2.2154045 -14.197378,4.1589393 -0.194455,0.086094 -0.358788,0.1587913 -0.365186,0.1615504 -0.0072,0.00313 -0.01002,-0.00864 -0.0074,-0.031237 z"
     id="path1530" />
  <path
     style="fill:#00a1d8;fill-opacity:1;stroke:none;stroke-width:0.0110485"
     d=""
     id="path1532" />
  <path
     style="fill:#00a1d8;fill-opacity:1;stroke:none;stroke-width:0.0110485"
     d="m 44.261698,11.621399 c 0.0042,-0.0159 0.07955,-0.04969 0.311087,-0.13941 1.326601,-0.514068 2.756104,-0.99854 4.169831,-1.413196 2.357547,-0.6914852 4.787146,-1.2354691 7.206408,-1.6135054 0.176224,-0.027537 0.339052,-0.053003 0.36184,-0.056591 0.03673,-0.00578 0.04143,-0.00391 0.04143,0.016545 0,0.012688 -0.0028,0.023068 -0.0061,0.023068 -0.02047,0 -0.932526,0.1433001 -1.236838,0.1943282 -3.731346,0.6256851 -7.433804,1.6461062 -10.675808,2.9423222 -0.09275,0.03708 -0.170595,0.06743 -0.17298,0.06743 -0.0024,0 -0.0019,-0.0094 0.0012,-0.02099 z"
     id="path1534" />
  <path
     style="fill:#00a1d8;fill-opacity:1;stroke:none;stroke-width:0.0110485"
     d="m 56.358062,8.4171805 c 0.0075,-0.028735 -0.01102,-0.02477 0.36513,-0.078099 1.748354,-0.2478755 3.347274,-0.3923852 5.162596,-0.4665932 0.46413,-0.018973 2.301224,-0.018948 2.723466,3.68e-5 0.67031,0.030139 1.310973,0.072308 2.049505,0.1349016 0.64193,0.054406 0.662912,0.056763 0.662912,0.074467 0,0.012083 -0.0099,0.014343 -0.04143,0.0095 -0.103179,-0.015818 -1.0991,-0.093431 -1.637946,-0.1276461 -1.155189,-0.073352 -2.182908,-0.1065519 -2.765161,-0.089327 -1.819054,0.053814 -3.57575,0.187077 -5.333422,0.4045938 -0.37111,0.045926 -1.073624,0.1401492 -1.156585,0.1551247 -0.03161,0.00571 -0.03454,0.004 -0.02906,-0.01696 z"
     id="path1536" />
  <path
     style="fill:#00a1d8;fill-opacity:1;stroke:none;stroke-width:0.0110485"
     d="m 56.358126,1.4426441 c 0.005,-0.026208 0.0099,-0.02743 0.183807,-0.046245 1.738004,-0.1880005 3.084138,-0.2868932 5.00135,-0.3674201 0.553158,-0.023234 2.415403,-0.033505 2.938913,-0.016209 0.852583,0.028167 1.706916,0.06962 2.413645,0.1171108 0.224584,0.015092 0.412271,0.027439 0.417082,0.027439 0.0048,0 0.0087,0.015671 0.0087,0.034825 v 0.034825 l -0.118772,-0.00738 c -2.415364,-0.1501081 -4.659277,-0.1681165 -7.007538,-0.056239 -1.098233,0.052323 -2.323514,0.1459035 -3.402952,0.2598996 -0.173186,0.01829 -0.342906,0.036193 -0.377156,0.039785 -0.06139,0.00644 -0.0622,0.00615 -0.05713,-0.020389 z"
     id="path1538" />
  <path
     style="fill:#00a1d8;fill-opacity:1;stroke:none;stroke-width:0.0110485"
     d=""
     id="path1540" />
  <path
     style="fill:#00a1d8;fill-opacity:1;stroke:none;stroke-width:0.0110485"
     d="M 79.581367,3.3089397 C 76.735489,2.5113181 73.550168,1.8848589 70.499464,1.5227961 69.527685,1.4074637 68.185248,1.2815724 67.483212,1.2399377 67.326664,1.2306535 67.323008,1.2295072 67.323008,1.1897058 v -0.033484 l 0.06353,0.0062 c 0.03494,0.00341 0.195283,0.016226 0.356316,0.02848 3.664832,0.2788794 7.410587,0.8931038 10.855194,1.7800219 0.485149,0.1249165 1.082063,0.2868556 1.091848,0.2962121 0.005,0.00478 0.0075,0.02311 0.0055,0.040731 l -0.0036,0.032038 z"
     id="path1542" />
  <path
     style="fill:#00a1d8;fill-opacity:1;stroke:none;stroke-width:0.0110485"
     d="M 79.48193,10.618273 C 76.301418,9.5490009 72.66212,8.7322945 69.107348,8.2900806 c -0.561235,-0.069818 -1.69801,-0.194276 -1.774474,-0.194276 -0.0054,0 -0.0099,-0.00715 -0.0099,-0.015878 0,-0.011587 0.0097,-0.014509 0.03591,-0.010814 0.01975,0.00279 0.16269,0.017551 0.317645,0.032813 3.413986,0.3362519 6.974222,1.0222845 10.153612,1.9565294 0.573455,0.168507 1.847433,0.567537 1.865334,0.584253 0.002,0.0019 0.002,0.01303 0,0.02478 -0.0034,0.01977 -0.01936,0.01609 -0.213577,-0.04921 z"
     id="path1544" />
  <path
     style="fill:#00a1d8;fill-opacity:1;stroke:none;stroke-width:0.0110485"
     d="M 91.659233,8.2549111 C 90.489192,7.5845655 88.936422,6.7937688 87.615467,6.1954954 85.296504,5.1452151 82.614454,4.1700843 80.002275,3.4275164 l -0.304581,-0.086584 7.46e-4,-0.036638 c 4.1e-4,-0.020151 0.0036,-0.036653 0.0072,-0.036671 0.038,-1.924e-4 1.400294,0.405076 1.993363,0.5930067 3.482802,1.1036255 6.942538,2.5990156 9.957499,4.3038963 l 0.135345,0.076534 v 0.043382 c 0,0.02386 -0.0012,0.043355 -0.0028,0.043323 -0.0015,-3.31e-5 -0.05994,-0.032817 -0.129821,-0.072854 z"
     id="path1546" />
  <path
     style="fill:#00a1d8;fill-opacity:1;stroke:none;stroke-width:0.0110485"
     d="m 91.570034,16.682536 c -3.066784,-2.181352 -6.570022,-4.029879 -10.275195,-5.421834 -0.495473,-0.186139 -1.187558,-0.433669 -1.531353,-0.547701 -0.07233,-0.02399 -0.07805,-0.02804 -0.06487,-0.04592 0.01351,-0.01832 0.04047,-0.0106 0.410786,0.117632 2.56264,0.887393 4.865915,1.898004 7.13594,3.131047 1.502773,0.816283 3.081814,1.802446 4.377986,2.734196 0.150762,0.108374 0.16849,0.124492 0.16849,0.153184 0,0.01763 -0.0016,0.03206 -0.0036,0.03206 -0.002,0 -0.100158,-0.0687 -0.218209,-0.152666 z"
     id="path1548" />
  <path
     style="fill:#00a1d8;fill-opacity:1;stroke:none;stroke-width:0.0110485"
     d="M 102.83253,16.562807 C 102.21412,15.973444 101.63252,15.450462 100.8492,14.779348 98.142312,12.4602 95.416035,10.482529 92.645778,8.8284928 92.390836,8.6762749 91.967319,8.4289333 91.853056,8.3655289 c -0.05437,-0.030168 -0.05799,-0.034845 -0.058,-0.074795 -9e-6,-0.033539 0.0036,-0.041245 0.01673,-0.036188 0.06987,0.02681 1.161649,0.6727604 1.651584,0.9771555 1.526834,0.9486176 2.751998,1.8017976 4.469136,3.1122196 1.930365,1.473145 3.449324,2.749325 4.864124,4.086683 l 0.24583,0.232374 v 0.04744 c 0,0.02609 -0.001,0.04738 -0.003,0.04731 -0.002,-7.7e-5 -0.0947,-0.08779 -0.20717,-0.194925 z"
     id="path1550" />
  <path
     style="fill:#00a1d8;fill-opacity:1;stroke:none;stroke-width:0.0110485"
     d="M 97.17406,21.452243 C 96.605546,20.867335 95.74492,20.050912 95.043312,19.430931 94.087473,18.5863 92.92524,17.656646 91.930385,16.940947 91.811176,16.855188 91.79504,16.839787 91.79504,16.81177 c 0,-0.0175 0.0024,-0.03181 0.0053,-0.03181 0.0029,0 0.111046,0.0779 0.240306,0.173114 1.249775,0.920588 2.52882,1.985973 3.737336,3.113025 0.651872,0.607932 1.737759,1.685705 1.698394,1.685705 -0.0061,0 -0.142163,-0.134802 -0.302304,-0.299561 z"
     id="path1552" />
  <path
     style="fill:#00a1d8;fill-opacity:1;stroke:none;stroke-width:0.0110485"
     d="m 108.39251,23.179829 c -1.11714,-1.68263 -2.339,-3.240496 -3.7183,-4.740785 -0.39923,-0.43425 -0.64909,-0.694358 -1.15016,-1.197316 l -0.48106,-0.482882 0.006,-0.04192 0.006,-0.04192 0.58002,0.580048 c 0.31901,0.319027 0.66921,0.674681 0.77823,0.790342 1.54572,1.639877 2.84374,3.268897 4.03176,5.059862 0.14108,0.212684 0.26007,0.392914 0.26441,0.40051 0.006,0.01017 -0.005,0.01381 -0.0419,0.01381 h -0.0498 z"
     id="path1554" />
  <path
     style="fill:#00a1d8;fill-opacity:1;stroke:none;stroke-width:0.0110485"
     d="m 103.35846,29.460926 c -0.51691,-0.861826 -1.15393,-1.838968 -1.75568,-2.693083 -1.19106,-1.690569 -2.459295,-3.24209 -3.876268,-4.742127 -0.225401,-0.238614 -0.257232,-0.274693 -0.241327,-0.273539 0.0091,6.6e-4 0.301813,0.306739 0.581189,0.607683 2.073266,2.233327 3.711156,4.410854 5.260236,6.993342 0.22219,0.370409 0.21293,0.353554 0.19405,0.353554 -0.008,0 -0.0811,-0.110624 -0.1622,-0.24583 z"
     id="path1556" />
  <path
     style="fill:#00a1d8;fill-opacity:1;stroke:none;stroke-width:0.0110485"
     d="m 106.58885,35.869585 c -0.0138,-0.0434 -0.29625,-0.701165 -0.44978,-1.047354 -0.7527,-1.697198 -1.60516,-3.364518 -2.49528,-4.880477 -0.0722,-0.122934 -0.13124,-0.2261 -0.13124,-0.229257 0,-0.0032 0.006,-0.0057 0.0138,-0.0056 0.008,5.6e-5 0.0316,0.03113 0.0534,0.06905 0.0218,0.03792 0.13674,0.237994 0.25548,0.444602 0.98904,1.720968 1.88876,3.51327 2.66732,5.313512 0.0813,0.187918 0.14777,0.345774 0.14777,0.350792 0,0.005 -0.0121,0.0091 -0.0269,0.0091 -0.018,0 -0.0294,-0.008 -0.0346,-0.02435 z"
     id="path1558" />
  <path
     style="fill:#00a1d8;fill-opacity:1;stroke:none;stroke-width:0.0110485"
     d="m 107.9263,39.415663 c -0.003,-0.0076 -0.0379,-0.110761 -0.0781,-0.229257 -0.30067,-0.886293 -0.76956,-2.133141 -1.14198,-3.036667 -0.0551,-0.133611 -0.10013,-0.245825 -0.10013,-0.249364 0,-0.0035 0.0118,-0.0064 0.0263,-0.0064 0.0241,0 0.039,0.03089 0.18165,0.378413 0.36421,0.886999 0.66864,1.700187 0.93374,2.494208 0.18402,0.55115 0.21762,0.662913 0.19929,0.662913 -0.009,0 -0.0181,-0.0062 -0.0208,-0.01381 z"
     id="path1560" />
  <path
     style="fill:#00a1d8;fill-opacity:1;stroke:none;stroke-width:0.0110485"
     d="m 115.00938,39.410139 c -0.003,-0.01063 -0.0336,-0.138659 -0.0678,-0.2845 -0.26966,-1.150873 -0.64104,-2.548202 -0.97932,-3.684689 -1.2158,-4.08464 -2.77062,-7.693786 -4.67166,-10.844146 -0.044,-0.07292 -0.0822,-0.136311 -0.085,-0.140869 -0.003,-0.0046 0.017,-0.0083 0.0439,-0.0083 h 0.0488 l 0.14377,0.240306 c 2.26218,3.78123 4.0523,8.318976 5.36652,13.603519 0.10877,0.437361 0.27116,1.114328 0.27116,1.130415 0,0.0042 -0.0146,0.0076 -0.0324,0.0076 -0.0213,0 -0.0343,-0.0066 -0.038,-0.01933 z"
     id="path1562" />
  <path
     style="fill:#00a1d8;fill-opacity:1;stroke:none;stroke-width:0.0110485"
     d="m 109.18292,24.42279 c -0.0119,-0.02551 -0.3916,-0.633232 -0.50395,-0.806544 l -0.0627,-0.09668 0.0525,2.53e-4 0.0525,2.54e-4 0.10969,0.173761 c 0.1861,0.294811 0.44874,0.720112 0.45537,0.737392 0.005,0.01301 -0.004,0.01642 -0.0428,0.01642 -0.0402,0 -0.0512,-0.0045 -0.0607,-0.02486 z"
     id="path1564" />
  <path
     style="fill:#00a1d8;fill-opacity:1;stroke:none;stroke-width:0.0110485"
     d="m 116.45147,47.282226 c -0.007,-0.05621 -0.0404,-0.286157 -0.0733,-0.510995 -0.32525,-2.21995 -0.706,-4.341836 -1.12704,-6.280879 -0.0773,-0.355847 -0.22351,-1.008353 -0.2336,-1.042317 -0.005,-0.01703 -3.8e-4,-0.01957 0.0306,-0.01657 l 0.0366,0.0035 0.069,0.303835 c 0.50107,2.205157 0.93294,4.570523 1.29585,7.097376 0.0427,0.297036 0.0776,0.541899 0.0776,0.544141 0,0.0022 -0.014,0.0041 -0.0311,0.0041 -0.031,0 -0.0312,-6.3e-4 -0.0446,-0.102199 z"
     id="path1566" />
  <path
     style="fill:#00a1d8;fill-opacity:1;stroke:none;stroke-width:0.0110485"
     d="m 113.18273,49.192527 c -2.11594,-1.453247 -3.85013,-2.645427 -3.85376,-2.649289 -0.004,-0.0039 -0.0433,-0.264885 -0.0882,-0.580049 -0.21111,-1.482404 -0.47919,-2.98259 -0.77839,-4.356002 -0.0429,-0.19686 -0.078,-0.359687 -0.078,-0.361839 0,-0.0022 0.007,-0.0039 0.0157,-0.0039 0.0178,0 0.0153,-0.0098 0.12821,0.513757 0.2515,1.166343 0.49142,2.460191 0.63509,3.425049 0.083,0.557587 0.16489,1.000796 0.21574,1.168049 0.0206,0.06767 0.0291,0.07982 0.0967,0.137214 0.33994,0.288659 2.09258,1.530641 4.17869,2.96116 1.88819,1.294794 2.56066,1.737306 2.8892,1.901194 0.2015,0.100516 0.28595,0.114468 0.33036,0.05457 0.0214,-0.02891 0.0231,-0.04444 0.0216,-0.204398 -0.005,-0.501529 -0.15107,-1.823367 -0.39594,-3.576066 -0.0343,-0.245463 -0.0342,-0.237544 -0.001,-0.237544 0.0325,0 0.0242,-0.044 0.10016,0.53033 0.15162,1.145641 0.29196,2.339707 0.40894,3.479443 0.0411,0.400544 0.0441,0.443461 0.0307,0.441693 -0.005,-6.04e-4 -1.73951,-1.190118 -3.85545,-2.643364 z"
     id="path1568" />
  <path
     style="fill:#00a1d8;fill-opacity:1;stroke:none;stroke-width:0.0110485"
     d="m 110.37315,47.139038 c -0.44396,-0.321387 -0.83123,-0.611437 -0.90305,-0.676346 -0.0479,-0.04329 -0.0616,-0.06447 -0.0798,-0.123324 -0.055,-0.177903 -0.13587,-0.617922 -0.22739,-1.236467 -0.24075,-1.627188 -0.78577,-4.260203 -1.13808,-5.498119 -0.24033,-0.84447 -0.76111,-2.284582 -1.26203,-3.489871 -0.45269,-1.089258 -1.08159,-2.453352 -1.57271,-3.411238 L 105.03576,32.4026 h 3.9587 3.9587 l 0.12014,0.339743 c 0.15742,0.445141 0.48348,1.425256 0.63011,1.894024 1.128,3.606182 2.00329,7.602902 2.67517,12.215279 0.0392,0.269065 0.0713,0.499013 0.0713,0.510995 0,0.02163 -0.0208,0.02178 -2.86985,0.02106 l -2.86986,-7.18e-4 -0.33698,-0.243944 z"
     id="path1570" />
  <path
     style="fill:#00a1d8;fill-opacity:1;stroke:none;stroke-width:0.0110485"
     d="m 110.37315,47.139555 c -0.4391,-0.31797 -0.83045,-0.611318 -0.90305,-0.676893 -0.0474,-0.04277 -0.0617,-0.06467 -0.079,-0.120885 -0.0499,-0.161646 -0.12494,-0.553711 -0.19477,-1.017905 -0.072,-0.47895 -0.11641,-0.757835 -0.17137,-1.077233 -0.27672,-1.608078 -0.72712,-3.692622 -1.01034,-4.676081 -0.23162,-0.804264 -0.72439,-2.174935 -1.17679,-3.273346 -0.48642,-1.181015 -1.12347,-2.569875 -1.6483,-3.593539 L 105.03514,32.4026 h 3.95895 3.95894 l 0.13539,0.383937 c 1.33851,3.795823 2.37538,8.118662 3.15027,13.133956 0.0963,0.623307 0.21115,1.407864 0.21115,1.442401 0,0.02129 -0.0324,0.02153 -2.86985,0.02111 l -2.86986,-4.2e-4 -0.33698,-0.244024 z"
     id="path1572" />
  <path
     style="fill:#00a1d8;fill-opacity:1;stroke:none;stroke-width:0.0110485"
     d="m 108.37941,41.227624 c -0.002,-0.0076 -0.0375,-0.16048 -0.078,-0.339742 -0.12623,-0.558082 -0.28186,-1.193045 -0.32548,-1.327927 -0.0296,-0.09155 -0.0379,-0.130637 -0.0285,-0.134234 0.0263,-0.01011 0.24059,0.805625 0.41597,1.583695 0.024,0.106342 0.0463,0.20205 0.0496,0.212684 0.004,0.01288 1.7e-4,0.01934 -0.0116,0.01934 -0.01,0 -0.0196,-0.0062 -0.022,-0.01381 z"
     id="path1574" />
  <path
     style="fill:#00a1d8;fill-opacity:1;stroke:none;stroke-width:0.00390625"
     d="m 112.86384,90.389618 c 0.003,-0.0042 0.0236,-0.03257 0.0458,-0.06297 0.21231,-0.289971 0.39757,-0.640376 0.52029,-0.984027 0.0565,-0.158268 0.0673,-0.214962 0.0305,-0.159944 -0.0187,0.02799 -0.0833,0.157671 -0.14879,0.298615 -0.0536,0.115533 -0.075,0.158475 -0.072,0.144532 9.4e-4,-0.0043 0.0649,-0.147628 0.14219,-0.318514 l 0.14048,-0.310701 0.005,-1.935392 c 0.003,-1.064467 0.006,-1.941546 0.008,-1.949065 0.002,-0.0078 0.003,0.148996 0.001,0.363281 -0.0103,2.047499 -0.005,3.396046 0.0134,3.428927 0.004,0.007 0.0129,-0.01997 0.0294,-0.08908 0.0538,-0.224454 0.0592,-0.433157 0.0643,-2.490235 l 0.003,-1.226562 6.5e-4,1.661015 6.5e-4,1.661015 -0.01,0.07727 c -0.0704,0.556267 -0.25424,1.08702 -0.54216,1.565548 -0.084,0.139645 -0.2182,0.333808 -0.23075,0.333919 -0.006,5.9e-5 -0.007,-8.04e-4 -0.002,-0.0076 z"
     id="path1576" />
  <path
     style="fill:#00a1d8;fill-opacity:1;stroke:none;stroke-width:0.00390625"
     d="m 113.53581,84.680511 c -3.3e-4,-0.238476 5.8e-4,-0.735498 0.002,-1.104492 l 0.003,-0.670898 h 0.0248 c 0.0248,0 0.0248,6e-6 0.0192,0.0088 -0.0135,0.02103 -0.0201,0.118138 -0.0257,0.375976 -0.005,0.227099 -0.0108,0.770134 -0.0142,1.306641 -0.001,0.218066 -0.004,0.42373 -0.005,0.457031 -0.002,0.03397 -0.003,-0.129811 -0.003,-0.373047 z"
     id="path1578" />
  <path
     style="fill:#00a1d8;fill-opacity:1;stroke:none;stroke-width:0.00390625"
     d="m 113.64437,84.951019 c -8.4e-4,-0.616359 -0.008,-1.778728 -0.0113,-1.856445 -0.005,-0.110148 -0.01,-0.163401 -0.0176,-0.178518 l -0.005,-0.01094 h 0.0192 0.0192 v 1.105468 c 0,0.608008 -8.8e-4,1.105469 -0.002,1.105469 -0.001,0 -0.002,-0.07427 -0.002,-0.165039 z"
     id="path1580" />
  <path
     style="fill:#00a1d8;fill-opacity:1;stroke:none;stroke-width:0.00390625"
     d="m 113.56312,74.579925 c 3.1e-4,-0.456006 0.002,-1.011914 0.003,-1.235351 0.002,-0.390225 0.003,-0.395772 0.003,-0.140625 0.002,0.736203 0.0129,1.77074 0.0204,1.982422 0.005,0.153407 0.011,0.207031 0.0214,0.207031 0.007,0 0.009,-0.0074 0.0137,-0.04713 0.0127,-0.112109 0.0159,-0.431608 0.0193,-1.925523 l 0.003,-1.185547 6.7e-4,1.586914 6.8e-4,1.586914 h -0.043 -0.043 z"
     id="path1582" />
  <path
     style="fill:#00a1d8;fill-opacity:1;stroke:none;stroke-width:0.00390625"
     d="m 113.66488,70.983246 c -3.8e-4,-0.02471 0.002,-0.100293 0.005,-0.167969 0.0297,-0.646076 0.0328,-1.823086 0.006,-2.259766 -0.006,-0.104118 -0.0263,-0.283914 -0.053,-0.478515 -0.0705,-0.515159 -0.20272,-1.014587 -0.36445,-1.376954 -0.0128,-0.02863 -0.0146,-0.0354 -0.01,-0.03648 0.003,-7.27e-4 0.007,-7.27e-4 0.007,0 6.3e-4,7.27e-4 0.0153,0.03472 0.0326,0.07554 0.22906,0.539554 0.36213,1.204518 0.40688,2.033203 0.0126,0.232831 0.0138,0.297451 0.0138,0.71875 0,0.480665 -0.002,0.542862 -0.0312,1.259766 -0.0117,0.283387 -0.0121,0.288971 -0.0129,0.232422 z"
     id="path1584" />
  <path
     style="fill:#00a1d8;fill-opacity:1;stroke:none;stroke-width:0.00390625"
     d="m 113.51064,68.592621 c -0.0127,-0.296826 -0.0382,-0.646656 -0.0635,-0.871094 -0.0278,-0.246126 -0.0679,-0.471559 -0.11119,-0.624698 -0.009,-0.03086 -0.0153,-0.05788 -0.0145,-0.06006 0.002,-0.0048 0.0294,0.09052 0.0454,0.155459 0.055,0.223808 0.0912,0.489184 0.11948,0.876953 0.0127,0.174331 0.0314,0.550651 0.0288,0.580078 -7.5e-4,0.0086 -0.003,-0.01689 -0.004,-0.05664 z"
     id="path1586" />
  <path
     style="fill:#00a1d8;fill-opacity:1;stroke:none;stroke-width:0.00390625"
     d="m 108.46881,66.764496 v -1.757813 l 0.52051,9.5e-5 c 1.04599,1.92e-4 1.70134,0.01042 1.88769,0.02945 1.0319,0.105419 1.76087,0.550116 2.22156,1.355216 0.26739,0.467281 0.45,1.088218 0.53993,1.835937 0.015,0.124896 0.0295,0.262165 0.0295,0.27945 v 0.01547 h -0.0758 -0.0758 l -0.002,-0.04004 c -10e-4,-0.02202 -0.004,-0.07607 -0.006,-0.120117 -0.017,-0.341755 -0.0433,-0.636471 -0.0764,-0.857422 -0.053,-0.353467 -0.12364,-0.577279 -0.27912,-0.884766 -0.44823,-0.886423 -0.99516,-1.299875 -1.93731,-1.464516 -0.0995,-0.01738 -0.24349,-0.03939 -0.24538,-0.0375 -0.002,0.0022 0.0105,0.0048 0.0481,0.0099 0.0172,0.0024 0.0778,0.012 0.13476,0.02143 0.35313,0.05853 0.62434,0.139302 0.86524,0.257694 0.0949,0.04667 0.22423,0.120867 0.21926,0.125843 -0.001,0.0011 -0.021,-0.0094 -0.0442,-0.02335 -0.2457,-0.147198 -0.53474,-0.25333 -0.89053,-0.327002 -0.0909,-0.01881 -0.24707,-0.04559 -0.28061,-0.04811 -0.0278,-0.0021 -0.0332,-0.0031 0.10937,0.02071 0.66343,0.110857 1.11903,0.323231 1.47701,0.68849 0.15003,0.153081 0.26752,0.311898 0.39792,0.537884 0.13542,0.234679 0.19776,0.356445 0.24995,0.488159 0.12675,0.319906 0.19588,0.744564 0.23627,1.451476 0.004,0.0752 0.009,0.151221 0.0101,0.168946 l 0.002,0.03223 h -2.48262 -2.48263 v -1.730469 -1.730468 l 0.66895,-6.59e-4 c 0.47265,-4.66e-4 0.61163,-0.0015 0.47363,-0.0034 -0.10742,-0.0015 -0.39307,-0.0048 -0.63476,-0.0072 -0.2417,-0.0025 -0.45572,-0.0051 -0.47559,-0.0058 l -0.0361,-0.0013 v 1.73969 1.73969 h -0.0332 -0.0332 z m 2.47051,-1.640166 c -0.003,-0.0033 -0.12511,-0.01782 -0.2459,-0.02946 -0.0301,-0.0029 -0.0467,-0.0055 -0.0369,-0.0057 0.0231,-5.78e-4 0.17275,0.01339 0.24759,0.02311 0.0321,0.0042 0.059,0.0069 0.0597,0.0062 0.007,-0.0066 -0.22492,-0.02971 -0.39348,-0.03925 -0.12849,-0.0073 -0.37217,-0.01508 -0.40625,-0.01302 -0.0176,0.0011 -0.0117,0.0018 0.0195,0.0023 0.11606,0.0021 0.36252,0.01721 0.52344,0.03216 0.0665,0.0062 0.22556,0.02428 0.23418,0.02665 9.7e-4,2.66e-4 9e-5,-0.0011 -0.002,-0.003 z m -0.87364,-0.06195 c -0.0165,-7.31e-4 -0.0447,-7.35e-4 -0.0625,-9e-6 -0.0178,7.25e-4 -0.004,0.0013 0.0301,0.0013 0.0344,5e-6 0.049,-5.89e-4 0.0324,-0.0013 z"
     id="path1588" />
  <path
     style="fill:#00a1d8;fill-opacity:1;stroke:none;stroke-width:0.00390625"
     d="m 108.46881,66.764496 v -1.757813 l 0.52051,9.5e-5 c 1.0431,1.9e-4 1.70856,0.01054 1.88735,0.02936 0.3649,0.0384 0.67944,0.114386 0.96923,0.234145 0.0793,0.03276 0.24136,0.112968 0.31236,0.15457 0.38866,0.227729 0.69741,0.543744 0.93485,0.956835 0.27387,0.476465 0.45578,1.094949 0.54747,1.861328 0.0131,0.109951 0.0275,0.247357 0.0275,0.263825 v 0.01547 h -0.0758 -0.0758 l -0.002,-0.04004 c -0.001,-0.02202 -0.004,-0.07607 -0.006,-0.120117 -0.0332,-0.652624 -0.0887,-1.049203 -0.18967,-1.35441 -0.0857,-0.259243 -0.27239,-0.617266 -0.45491,-0.872582 -0.0931,-0.130175 -0.17017,-0.221631 -0.2748,-0.32591 -0.27581,-0.274895 -0.58478,-0.449966 -1.00947,-0.571991 -0.0841,-0.02416 -0.16653,-0.04334 -0.16799,-0.03908 -7.1e-4,0.0021 -0.004,0.0014 -0.007,-0.0015 -0.009,-0.0088 -0.19559,-0.04464 -0.34767,-0.06678 -0.0387,-0.0056 -0.0744,-0.01112 -0.0794,-0.01221 -0.005,-0.0012 -0.008,-4.05e-4 -0.007,0.0018 0.001,0.0021 0.0124,0.0051 0.0247,0.0066 0.0153,0.0019 0.02,0.0037 0.0148,0.0055 -0.005,0.0017 0.009,0.0052 0.0371,0.0094 0.0753,0.01137 0.21667,0.037 0.28391,0.05146 0.0351,0.0075 0.0653,0.01276 0.0672,0.01159 0.002,-0.0012 0.004,-6.93e-4 0.005,0.0011 7.2e-4,0.0018 0.0312,0.01075 0.0677,0.01998 0.46135,0.116652 0.81418,0.302656 1.09723,0.57844 0.20639,0.201088 0.34354,0.395839 0.56119,0.796875 0.15692,0.289134 0.23742,0.552496 0.29432,0.962891 0.0306,0.220572 0.0581,0.53716 0.0746,0.857422 10e-4,0.02256 0.003,0.05464 0.004,0.07129 l 0.002,0.03027 h -2.48283 -2.48283 V 66.79184 65.061372 l 0.59668,-6.25e-4 c 0.35115,-3.68e-4 0.55409,-0.0018 0.49317,-0.0034 -0.0569,-0.0015 -0.31446,-0.0048 -0.57227,-0.0073 -0.25781,-0.0025 -0.48061,-0.0052 -0.49512,-0.0061 l -0.0264,-0.0017 v 1.740007 1.740007 h -0.0332 -0.0332 z m 2.4707,-1.640625 c -0.001,-0.0023 0.003,-0.0039 0.0121,-0.0039 0.008,0 0.0136,-9.16e-4 0.0125,-0.002 -0.005,-0.0053 -0.26439,-0.03312 -0.30851,-0.03312 -0.0136,0 -0.0181,0.0014 -0.0167,0.005 10e-4,0.0028 0.008,0.0054 0.0145,0.0058 0.0478,0.0031 0.27998,0.02861 0.28724,0.03159 6.6e-4,2.73e-4 1.2e-4,-0.0013 -0.001,-0.0034 z m -0.34375,-0.03516 c -0.001,-0.0024 0.005,-0.0041 0.0164,-0.0045 0.0584,-0.0017 -0.20527,-0.01398 -0.35816,-0.01664 -0.0955,-0.0017 -0.0967,-0.0016 -0.0273,0.0015 0.15058,0.0068 0.36358,0.02002 0.37035,0.02295 6.6e-4,2.86e-4 1.2e-4,-0.0012 -10e-4,-0.0034 z m -0.54382,-0.02629 c -0.009,-8.19e-4 -0.0249,-8.29e-4 -0.0352,-2.1e-5 -0.0103,8.07e-4 -0.003,0.0015 0.0165,0.0015 0.0193,1.2e-5 0.0277,-6.48e-4 0.0187,-0.0015 z"
     id="path1590" />
  <path
     style="fill:#00a1d8;fill-opacity:1;stroke:none;stroke-width:0.00390625"
     d="m 108.46881,66.764496 v -1.757813 l 0.52051,9.5e-5 c 0.82103,1.49e-4 1.47897,0.0075 1.74477,0.01959 0.32494,0.01474 0.70929,0.0919 1.00325,0.201412 0.79459,0.296014 1.32906,0.880114 1.64026,1.792572 0.10103,0.29623 0.18823,0.675492 0.23935,1.041016 0.0211,0.151188 0.0511,0.412304 0.0511,0.445576 v 0.01536 h -0.0762 c -0.0456,0 -0.0762,-0.0015 -0.0762,-0.0037 0,-0.002 -0.003,-0.05522 -0.006,-0.118164 -0.0402,-0.786188 -0.10192,-1.177848 -0.24012,-1.524599 -0.0748,-0.187599 -0.21488,-0.452605 -0.34077,-0.644532 -0.22332,-0.340439 -0.48311,-0.591768 -0.79216,-0.766343 -0.19054,-0.107629 -0.40177,-0.189559 -0.64648,-0.250752 -0.0344,-0.0086 -0.0678,-0.01664 -0.0742,-0.01788 -0.006,-0.0012 -0.0486,-0.01007 -0.0937,-0.01962 -0.0451,-0.0096 -0.0864,-0.01723 -0.0918,-0.01707 -0.008,2.47e-4 -0.008,6.58e-4 -0.002,0.0021 0.004,0.001 0.01,0.0043 0.0121,0.0073 0.002,0.0031 0.04,0.01293 0.0879,0.02299 0.46569,0.09774 0.83313,0.264275 1.13245,0.513271 0.0606,0.05045 0.20754,0.197853 0.25949,0.260381 0.13487,0.162348 0.2482,0.337911 0.40346,0.625 0.10015,0.185183 0.16233,0.337998 0.21187,0.520685 0.076,0.280265 0.12743,0.682433 0.15821,1.237128 0.003,0.05801 0.007,0.12085 0.008,0.139648 l 0.002,0.03418 h -2.48271 -2.48272 V 66.791858 65.06139 l 0.54981,-5.85e-4 c 0.30239,-3.22e-4 0.52519,-0.0019 0.49512,-0.0034 -0.0301,-0.0016 -0.26915,-0.0049 -0.53125,-0.0073 -0.26211,-0.0025 -0.4858,-0.0053 -0.49708,-0.0064 l -0.0205,-0.0019 v 1.740269 1.740268 h -0.0332 -0.0332 z m 2.74805,-1.599699 c -0.0107,-0.0028 -0.0257,-0.005 -0.0332,-0.005 -0.0116,5.4e-5 -0.0105,8.04e-4 0.008,0.005 0.0296,0.0069 0.0522,0.0068 0.0254,-8.9e-5 z m -0.0332,-0.01365 c -0.005,-0.0018 -0.052,-0.0097 -0.10351,-0.01743 -0.0516,-0.0077 -0.0978,-0.01495 -0.10287,-0.01602 -0.005,-0.0011 -0.008,-3.72e-4 -0.007,0.0018 10e-4,0.0021 0.0122,0.005 0.0242,0.0065 0.0144,0.0018 0.02,0.0039 0.0165,0.0061 -0.003,0.0018 -0.004,0.0034 -0.001,0.0034 0.002,4.2e-5 0.0197,0.0026 0.039,0.0058 0.0193,0.0031 0.0391,0.0047 0.0439,0.0035 0.006,-0.0015 0.009,-4.78e-4 0.009,0.0031 5e-5,0.0041 9.2e-4,0.004 0.004,-5.53e-4 0.002,-0.0032 0.004,-0.0041 0.004,-0.0019 3e-5,0.0022 0.0119,0.0045 0.0264,0.0052 0.0145,6.51e-4 0.0271,0.0019 0.028,0.0028 9.1e-4,9.12e-4 0.008,0.0015 0.0156,0.0013 0.0129,-2.84e-4 0.0132,-5.69e-4 0.004,-0.0037 z m -0.24414,-0.02727 c -0.001,-0.0023 0.003,-0.0039 0.0121,-0.0039 0.0424,0 -0.0256,-0.01036 -0.15276,-0.02327 -0.10939,-0.0111 -0.16211,-0.0139 -0.16211,-0.0086 0,0.0059 0.005,0.0066 0.10547,0.01622 0.0718,0.0068 0.19343,0.0209 0.19847,0.02298 6.6e-4,2.73e-4 1.2e-4,-0.0013 -0.001,-0.0034 z m -0.38582,-0.03752 c -0.001,-0.0013 -0.005,-0.0014 -0.007,-3.08e-4 -0.003,0.0012 -0.002,0.0022 0.002,0.0024 0.004,1.7e-4 0.006,-7.54e-4 0.005,-0.0021 z m -0.0673,-0.0055 c -0.001,-0.0022 -0.0158,-0.0036 -0.0325,-0.0032 l -0.03,7.16e-4 0.0312,0.0025 c 0.0172,0.0014 0.0318,0.0028 0.0325,0.0032 6.6e-4,3.94e-4 1.2e-4,-0.001 -0.001,-0.0032 z m 0.13183,0.0013 c -0.003,-0.0011 -0.007,-0.0011 -0.01,0 -0.003,0.0011 -4.9e-4,0.002 0.005,0.002 0.005,0 0.008,-8.86e-4 0.005,-0.002 z m -0.26074,-0.0091 c -0.009,-0.0017 -0.0508,-0.0038 -0.0937,-0.0048 -0.082,-0.0019 -0.0753,-7.52e-4 0.0254,0.0045 0.0806,0.0042 0.0882,0.0042 0.0684,3.85e-4 z m -0.31543,-0.0105 c -0.004,-9.82e-4 -0.01,-9.82e-4 -0.0137,0 -0.004,9.83e-4 -6.8e-4,0.0018 0.007,0.0018 0.008,0 0.0106,-8.04e-4 0.007,-0.0018 z"
     id="path1592" />
  <path
     style="fill:#00a1d8;fill-opacity:1;stroke:none;stroke-width:0.00390625"
     d="m 108.46881,66.763905 v -1.758403 l 0.81152,0.0024 c 0.77536,0.0023 1.06138,0.0054 1.34668,0.01435 0.15198,0.0048 0.20999,0.0087 0.31965,0.02164 0.51918,0.06119 0.95866,0.211334 1.32879,0.453955 0.35811,0.234743 0.64739,0.559961 0.86954,0.977561 0.22761,0.427869 0.3896,0.979945 0.47794,1.628917 0.0164,0.12056 0.0451,0.374961 0.0451,0.399946 v 0.01802 h -0.0758 -0.0758 l -0.002,-0.03613 c -0.001,-0.01987 -0.004,-0.07305 -0.006,-0.118164 -0.0103,-0.205223 -0.0255,-0.417249 -0.0411,-0.572265 -0.0538,-0.534169 -0.13213,-0.821913 -0.32616,-1.198292 -0.40627,-0.788102 -0.88453,-1.189842 -1.64535,-1.382092 -0.0306,-0.0077 -0.0635,-0.01559 -0.0732,-0.01747 -0.01,-0.0019 -0.0501,-0.01056 -0.0899,-0.01929 -0.0466,-0.01024 -0.0844,-0.01626 -0.10644,-0.01694 -0.0356,-0.0011 -0.0411,0.0025 -0.0108,0.007 0.0127,0.0019 0.016,0.0015 0.0117,-0.0015 -0.005,-0.0034 -0.005,-0.0041 -3e-4,-0.0041 0.003,-3.3e-5 0.008,0.0025 0.0117,0.0055 0.007,0.0063 0.0778,0.02176 0.0996,0.02176 0.008,0 0.014,0.0015 0.014,0.0032 0,0.0018 0.005,0.0025 0.0117,0.0015 0.006,-9.46e-4 0.0117,-5.5e-5 0.0117,0.002 0,0.002 0.002,0.0039 0.005,0.0041 0.003,1.98e-4 0.0102,0.0015 0.0166,0.003 0.006,0.0014 0.0143,0.0032 0.0176,0.0039 0.003,7.05e-4 0.007,0.0016 0.008,0.002 10e-4,4.12e-4 0.005,4.36e-4 0.009,5.3e-5 0.004,-3.82e-4 0.007,0.001 0.007,0.0031 0,0.0021 0.004,0.0029 0.008,0.0017 0.004,-0.0011 0.008,-2.96e-4 0.008,0.0018 0,0.0021 0.0154,0.0077 0.0342,0.01237 0.28944,0.07186 0.56548,0.190249 0.78808,0.337986 0.11448,0.07598 0.1979,0.14382 0.30021,0.244147 0.17501,0.171608 0.29559,0.333854 0.4545,0.611512 0.16995,0.296959 0.23362,0.437772 0.29596,0.654498 0.0834,0.289991 0.13433,0.680238 0.17,1.302533 0.004,0.0752 0.008,0.138037 0.008,0.139648 0,0.0016 -1.11708,0.0029 -2.48241,0.0029 h -2.48243 v -1.730469 -1.730468 l 0.52246,-5.38e-4 c 0.28736,-2.95e-4 0.50664,-0.0019 0.48731,-0.0035 -0.0193,-0.0016 -0.24873,-0.0049 -0.50977,-0.0074 -0.26103,-0.0024 -0.4812,-0.0053 -0.48925,-0.0063 l -0.0147,-0.0019 v 1.740281 1.74028 h -0.0332 -0.0332 z m 2.72204,-1.610708 c -10e-4,-0.001 -0.0395,-0.0079 -0.0856,-0.01534 -0.1178,-0.01898 -0.13255,-0.02093 -0.13255,-0.01754 0,0.0016 0.01,0.0042 0.0219,0.0057 0.0121,0.0015 0.0198,0.004 0.0172,0.0056 -0.003,0.0016 0.017,0.0063 0.0435,0.01052 0.0265,0.0042 0.0499,0.0062 0.052,0.0044 0.006,-0.0048 0.0108,-0.0039 0.008,0.0013 -0.002,0.0032 10e-4,0.0039 0.0114,0.0022 0.008,-0.0013 0.015,-9.81e-4 0.016,6.39e-4 10e-4,0.0016 0.0127,0.0032 0.0261,0.0036 0.0133,3.68e-4 0.0234,-1.64e-4 0.0224,-0.0012 z m -0.24352,-0.03274 0.0156,-0.003 -0.0117,-0.0026 c -0.0184,-0.0041 -0.17688,-0.02119 -0.24701,-0.0266 -0.0587,-0.0045 -0.073,-0.0038 -0.066,0.0031 0.004,0.0039 0.0978,0.01179 0.10027,0.0084 0.001,-0.0016 0.004,-0.0014 0.007,4.67e-4 0.003,0.0018 0.008,0.0024 0.0107,0.0013 0.003,-0.0011 0.007,-3.34e-4 0.0101,0.0017 0.003,0.0021 0.0119,0.0034 0.0205,0.0029 0.009,-4.81e-4 0.0172,6.1e-5 0.0192,0.0012 0.002,0.0011 0.008,0.0026 0.0137,0.0032 0.006,6.26e-4 0.0286,0.0037 0.0511,0.0067 0.0487,0.0067 0.0557,0.0069 0.0762,0.0031 z m -0.33114,-0.03801 c -0.001,-0.0013 -0.005,-0.0014 -0.007,-3.08e-4 -0.003,0.0012 -0.002,0.0022 0.002,0.0024 0.004,1.69e-4 0.006,-7.54e-4 0.005,-0.0021 z m -0.14044,-0.0044 c -0.008,-8.39e-4 -0.0221,-8.51e-4 -0.0312,-2.5e-5 -0.009,8.25e-4 -0.003,0.0015 0.0145,0.0015 0.0172,1.4e-5 0.0247,-6.61e-4 0.0167,-0.0015 z m -0.11436,-0.005 c -0.004,-0.0018 -0.028,-0.0031 -0.0527,-0.0029 l -0.0449,4.97e-4 0.043,0.0024 c 0.0236,0.0013 0.0474,0.0026 0.0527,0.0029 0.009,4.48e-4 0.009,1.61e-4 0.002,-0.0029 z m -0.12012,-0.0067 c -0.006,-8.95e-4 -0.0156,-8.95e-4 -0.0215,0 -0.006,8.95e-4 -10e-4,0.0016 0.0107,0.0016 0.0118,0 0.0166,-7.33e-4 0.0107,-0.0016 z"
     id="path1594" />
  <path
     style="fill:#003056;fill-opacity:1;stroke:none;stroke-width:0.0883883"
     d="m 113.72377,74.756114 c 0,-5.762106 -0.018,-6.669467 -0.1436,-7.225748 -0.15874,-0.703208 -0.43345,-1.307718 -0.78313,-1.723292 -0.32016,-0.380486 -1.1899,-0.793916 -1.82021,-0.865227 -0.49019,-0.05546 -0.52354,-0.07393 -0.52509,-0.290871 -9.2e-4,-0.127407 -0.25692,-4.228233 -0.5689,-9.112946 -0.31197,-4.884712 -0.55982,-8.887908 -0.55076,-8.895991 0.009,-0.0081 2.46261,1.665311 5.45235,3.718652 l 5.43588,3.733347 0.0224,13.625828 0.0224,13.625828 h -3.27065 -3.27064 z"
     id="path1604" />
  <path
     style="fill:#003056;fill-opacity:1;stroke:none;stroke-width:0.00390625"
     d="m 110.02106,58.380655 c 0,-0.01311 -0.33108,-5.235641 -0.33375,-5.264545 l -0.002,-0.02246 h 0.0194 c 0.017,0 0.0196,0.0011 0.0212,0.0088 9.6e-4,0.0048 0.007,0.09844 0.0139,0.208008 0.007,0.10957 0.0367,0.58418 0.0666,1.054687 0.0299,0.470508 0.0992,1.561231 0.15397,2.423828 0.0547,0.862598 0.10006,1.575831 0.10069,1.584961 l 0.001,0.0166 h -0.0205 c -0.0194,0 -0.0205,-5.66e-4 -0.0205,-0.0099 z"
     id="path1606" />
  <path
     style="fill:#003056;fill-opacity:1;stroke:none;stroke-width:0.00390625"
     d="m 109.68512,53.086813 c 0,-0.0038 -0.0395,-0.62998 -0.0879,-1.391602 -0.0483,-0.761621 -0.0879,-1.391357 -0.0879,-1.399414 v -0.01465 h 0.0192 0.0192 l 0.002,0.02832 c 0.001,0.01558 0.0252,0.393946 0.0532,0.840821 0.0279,0.446875 0.0665,1.061802 0.0858,1.366505 0.0193,0.304702 0.0351,0.559146 0.0351,0.565429 0,0.01111 -5.5e-4,0.01143 -0.0195,0.01143 -0.016,0 -0.0195,-0.0012 -0.0195,-0.0068 z"
     id="path1608" />
  <path
     style="fill:#003056;fill-opacity:1;stroke:none;stroke-width:0.00390625"
     d="m 109.38895,48.418842 c -0.0651,-1.024266 -0.1194,-1.868015 -0.12056,-1.874998 -0.003,-0.01841 0.005,-0.01641 0.0281,0.0068 0.0211,0.02145 0.0254,0.02342 0.0254,0.01172 0,-0.0043 8.2e-4,-0.0078 0.002,-0.0078 0.002,0 5.03793,3.456553 5.04428,3.462619 0.003,0.0033 0.005,0.01327 0.004,0.03083 l -10e-4,0.02598 -0.28516,-0.19575 c -2.49413,-1.712137 -4.73329,-3.237738 -4.75209,-3.237738 -0.002,0 -0.004,0.0048 -0.004,0.01074 1.7e-4,0.0644 0.0844,1.467362 0.18755,3.124891 0.0171,0.275477 0.0312,0.501796 0.0312,0.50293 0,0.0011 -0.009,0.0021 -0.0205,0.0021 l -0.0205,-3e-6 z"
     id="path1610" />
  <path
     style="fill:#003056;fill-opacity:1;stroke:none;stroke-width:0.00390625"
     d="m 120.22491,55.695745 c -0.002,-1.203378 -0.004,-1.601718 -0.007,-1.60515 -0.003,-0.0035 -1.396,-0.960408 -3.02796,-2.080761 l -0.0156,-0.01073 0.043,0.0012 0.043,0.0012 1.54395,1.059934 1.54394,1.059934 v 1.587527 1.587527 h -0.0601 -0.06 z"
     id="path1612" />
  <path
     style="fill:#003056;fill-opacity:1;stroke:none;stroke-width:0.00390625"
     d="m 120.23315,60.424261 c -10e-4,-0.342139 -0.003,-1.185889 -0.004,-1.875 l -0.002,-1.25293 h 0.0604 0.0604 v 1.875 1.875 h -0.0562 -0.0562 z"
     id="path1614" />
  <path
     style="fill:#003056;fill-opacity:1;stroke:none;stroke-width:0.00390625"
     d="m 120.23714,63.067166 c -10e-4,-0.435415 -0.003,-1.068228 -0.003,-1.40625 v -0.614585 h 0.0566 0.0566 v 1.40625 1.40625 h -0.054 -0.054 z"
     id="path1616" />
  <path
     style="fill:#003056;fill-opacity:1;stroke:none;stroke-width:0.00390625"
     d="m 120.24482,67.553167 c -0.001,-0.03061 -0.003,-0.874365 -0.004,-1.875 l -0.002,-1.819336 h 0.0548 0.0548 v 1.875 1.875 h -0.0504 -0.0504 z"
     id="path1620" />
  <path
     style="fill:#003056;fill-opacity:1;stroke:none;stroke-width:0.00390625"
     d="m 120.24884,69.973427 c -0.001,-0.07447 -0.003,-0.636972 -0.003,-1.25 v -1.114596 h 0.0508 0.0508 v 1.25 1.25 h -0.0482 -0.0482 z"
     id="path1622" />
  <path
     style="fill:#003056;fill-opacity:1;stroke:none;stroke-width:0.00390625"
     d="m 120.25277,72.851995 c -0.001,-0.89751 -0.003,-1.881885 -0.003,-2.1875 v -0.555664 h 0.0488 0.0488 v 2.1875 2.1875 h -0.0462 -0.0462 z"
     id="path1626" />
  <path
     style="fill:#003056;fill-opacity:1;stroke:none;stroke-width:0.00390625"
     d="m 120.26043,77.05512 c -0.001,-0.820166 -0.003,-1.734229 -0.004,-2.03125 l -10e-4,-0.540039 h 0.0462 0.0462 v 2.03125 2.03125 h -0.0425 -0.0425 z"
     id="path1628" />
  <path
     style="fill:#003056;fill-opacity:1;stroke:none;stroke-width:0.00390625"
     d="m 116.56657,81.352972 c 0,-0.0052 0.20819,-0.0059 1.85026,-0.0059 h 1.85026 l -0.003,-1.40039 -0.003,-1.400391 h 0.0429 0.0429 v 1.40625 1.40625 h -1.89062 c -1.67795,0 -1.89063,-6.59e-4 -1.89063,-0.0059 z"
     id="path1630" />
  <path
     style="fill:#003056;fill-opacity:1;stroke:none;stroke-width:0.00390625"
     d="m 113.66998,79.335393 v -2.023437 h 0.0254 0.0254 v 2.017578 2.017578 l 1.43457,6.25e-4 c 0.78902,3.44e-4 1.42842,0.0015 1.4209,0.0027 l -0.0137,0.002 0.0156,0.0026 c 0.009,0.0014 -0.64224,0.0029 -1.44629,0.0032 l -1.46192,5.54e-4 z"
     id="path1632" />
  <path
     style="fill:#003056;fill-opacity:1;stroke:none;stroke-width:0.00390625"
     d="m 113.66998,75.280706 v -2.03125 h 0.0254 0.0254 v 2.03125 2.03125 h -0.0254 -0.0254 z"
     id="path1634" />
  <path
     style="fill:#003056;fill-opacity:1;stroke:none;stroke-width:0.00390625"
     d="m 113.67009,72.482854 c 1e-4,-0.749133 0.003,-1.119999 0.0115,-1.356445 0.002,-0.06445 0.009,-0.240234 0.0139,-0.390625 0.005,-0.150391 0.0111,-0.313867 0.0127,-0.363281 0.004,-0.127933 0.008,0.512722 0.0112,1.813476 l 0.003,1.063477 h -0.026 -0.026 z"
     id="path1636" />
  <path
     style="fill:#003056;fill-opacity:1;stroke:none;stroke-width:0.00390625"
     d="m 113.65519,68.181097 c -0.003,-0.02578 -0.0112,-0.0917 -0.0186,-0.146485 -0.17197,-1.257956 -0.61499,-2.109621 -1.35169,-2.5985 -0.46325,-0.307419 -1.03857,-0.468019 -1.74104,-0.48601 l -0.10401,-0.0027 -0.002,-0.01598 c -10e-4,-0.0088 -0.0161,-0.242741 -0.0333,-0.51989 -0.0172,-0.277148 -0.0322,-0.511377 -0.0332,-0.520507 l -0.002,-0.0166 h 0.0173 0.0173 l 0.002,0.0166 c 0.003,0.02059 0.0355,0.588204 0.0432,0.745117 0.004,0.08067 0.008,0.121678 0.012,0.136718 0.0169,0.05719 0.0578,0.09043 0.1385,0.112552 0.0663,0.01817 0.13769,0.02962 0.33396,0.05352 0.16851,0.02052 0.24345,0.03423 0.3828,0.07002 0.43472,0.111654 0.91348,0.335184 1.23439,0.576328 0.14822,0.111374 0.24095,0.20705 0.35977,0.371176 0.27459,0.379317 0.49311,0.874371 0.63446,1.437336 0.0634,0.252378 0.0872,0.407981 0.11143,0.72933 0.007,0.09357 0.006,0.128708 -10e-4,0.05794 z"
     id="path1638" />
  <path
     style="fill:#003056;fill-opacity:1;stroke:none;stroke-width:0.00390625"
     d="m 110.3717,63.873479 c -2.6e-4,-5.37e-4 -0.0631,-0.984472 -0.13971,-2.186523 l -0.13923,-2.185547 0.019,-0.0012 c 0.0105,-6.57e-4 0.0195,-6.57e-4 0.02,0 0.003,0.0032 0.2716,4.319425 0.2716,4.358309 v 0.01593 h -0.0156 c -0.009,0 -0.0158,-4.4e-4 -0.0161,-9.77e-4 z"
     id="path1640" />
  <path
     style="fill:#003056;fill-opacity:1;stroke:none;stroke-width:0.00390625"
     d="m 110.06979,59.139104 c -0.0126,-0.198193 -0.0283,-0.447505 -0.0351,-0.554026 l -0.0123,-0.193675 0.0196,0.0018 c 0.0108,9.87e-4 0.0199,0.002 0.0202,0.0023 3.1e-4,2.61e-4 0.0157,0.241295 0.0341,0.535631 0.0185,0.294336 0.0342,0.542627 0.0351,0.551757 l 0.002,0.0166 h -0.0202 -0.0202 z"
     id="path1642" />
  <path
     style="fill:#860788;fill-opacity:1;stroke:none;stroke-width:0.125"
     d="M 23.565025,97.966282 C 21.444934,97.512736 19.825617,96.199787 18.853018,94.145768 L 18.440025,93.273575 V 78.204592 63.135609 l 0.46684,-0.944587 c 0.563391,-1.139944 1.289082,-1.849259 2.448209,-2.392961 0.713806,-0.334819 1.010785,-0.398816 2.046829,-0.441077 1.882949,-0.07681 3.297952,0.449054 4.521337,1.680279 l 0.483215,0.486312 -0.07386,1.0625 c -0.04063,0.584375 -0.171142,2.24375 -0.290039,3.6875 -0.308393,3.744786 -0.310591,11.562343 -0.0041,14.5 0.278171,2.666018 0.68909,4.703112 1.335202,6.619145 0.490954,1.455912 0.503847,1.537838 0.503847,3.201688 0,0.939149 -0.05618,2.010534 -0.124849,2.380855 -0.3224,1.73871 -1.90549,3.865858 -3.438913,4.620759 -0.854777,0.420806 -1.871975,0.557824 -2.748738,0.37026 z"
     id="path1648" />
  <path
     style="fill:#860788;fill-opacity:1;stroke:none;stroke-width:0.125"
     d="m 101.24369,97.915153 c -1.746722,-0.470967 -3.519046,-2.334952 -4.128757,-4.342293 -0.240927,-0.793203 -0.250935,-1.075642 -0.195066,-5.505192 0.03239,-2.568001 0.114824,-5.259718 0.183188,-5.981593 0.463422,-4.893378 0.730099,-9.946532 0.856453,-16.228552 l 0.08379,-4.16605 0.716213,-0.72742 c 1.196255,-1.214972 2.959999,-1.867724 4.594209,-1.700295 2.27832,0.233421 3.89691,1.37279 4.66956,3.287028 l 0.29174,0.722789 0.0378,14.5 c 0.0272,10.454711 -0.002,14.709238 -0.1044,15.25 -0.45432,2.396851 -2.4111,4.364557 -4.85562,4.882706 -0.99331,0.210546 -1.39496,0.212205 -2.14908,0.0089 z"
     id="path1652" />
  <path
     style="fill:#860788;fill-opacity:1;stroke:none;stroke-width:0.00390625"
     d="m 28.274489,63.399925 c 0,-0.0048 0.0088,-0.124805 0.01959,-0.266602 0.02185,-0.287847 0.04458,-0.605727 0.08627,-1.206531 l 0.02815,-0.40575 -0.327755,-0.326939 C 27.751792,60.86597 27.685897,60.803083 27.539239,60.67732 26.65019,59.914939 25.66595,59.499479 24.469786,59.381664 c -0.255405,-0.02516 -0.568112,-0.03743 -0.833008,-0.0327 l -0.135742,0.0024 v -0.05492 -0.05492 l 0.06543,0.0017 c 0.03599,9.31e-4 0.100146,0.0034 0.142577,0.0055 0.04243,0.0021 0.122411,0.0038 0.177734,0.0038 0.112054,10e-6 0.24174,0.0049 0.368165,0.01384 1.159915,0.08213 2.266482,0.506193 3.185547,1.220784 0.35845,0.278702 0.693668,0.609742 0.978027,0.965838 l 0.06494,0.08133 -0.0011,0.01828 c -6.13e-4,0.01006 -0.02644,0.335569 -0.0574,0.723362 -0.03095,0.387793 -0.06382,0.801318 -0.07304,0.918945 l -0.01676,0.213867 h -0.03034 c -0.02886,0 -0.03034,-4.27e-4 -0.03032,-0.0088 z"
     id="path1654" />
  <path
     style="fill:#860788;fill-opacity:1;stroke:none;stroke-width:0.00390625"
     d="m 28.002463,66.827659 c 0.0012,-0.0102 0.0031,-0.0335 0.0043,-0.05176 0.0082,-0.126766 0.02943,-0.398534 0.08025,-1.025391 0.06644,-0.819534 0.125673,-1.562903 0.161241,-2.023438 l 0.02444,-0.316406 0.03019,-0.0011 0.03019,-0.0011 v 0.01213 c 0,0.0067 -0.0044,0.06783 -0.0097,0.135907 -0.0054,0.06808 -0.0203,0.260007 -0.03323,0.426511 -0.01292,0.166504 -0.02696,0.346679 -0.0312,0.40039 -0.03279,0.415827 -0.133697,1.766016 -0.16392,2.19336 -0.0086,0.121387 -0.01668,0.231689 -0.01798,0.245117 l -0.0024,0.02441 h -0.03717 -0.03716 z"
     id="path1656" />
  <path
     style="fill:#860788;fill-opacity:1;stroke:none;stroke-width:0.00390625"
     d="m 27.85709,70.242698 c -0.0015,-0.106683 0.03188,-1.148045 0.05417,-1.689453 0.0241,-0.585471 0.06707,-1.4 0.08835,-1.674804 l 0.0025,-0.03223 h 0.03657 c 0.02011,0 0.03657,8.67e-4 0.03657,0.0019 0,0.0011 -0.0088,0.125425 -0.01946,0.276367 -0.06923,0.976413 -0.135064,2.01207 -0.179715,2.827175 -0.01916,0.349704 -0.01834,0.337151 -0.01899,0.291015 z"
     id="path1658" />
  <path
     style="fill:#860788;fill-opacity:1;stroke:none;stroke-width:0.00390625"
     d="m 28.163171,81.837425 c -0.0096,-0.04071 -0.109456,-0.919685 -0.136558,-1.202148 -0.05632,-0.586954 -0.103536,-1.363794 -0.138777,-2.283204 -0.0095,-0.248186 -0.01869,-0.522053 -0.02127,-0.634765 -0.0019,-0.08239 -0.0017,-0.0809 0.0095,0.07813 0.06593,0.935438 0.113773,1.539001 0.207164,2.613281 0.05417,0.623083 0.10099,1.144822 0.117113,1.304973 0.0064,0.06354 0.01163,0.119347 0.01163,0.124024 0,0.0078 -0.002,0.0085 -0.02336,0.0085 -0.02101,0 -0.02357,-8.85e-4 -0.02544,-0.0088 z"
     id="path1660" />
  <path
     style="fill:#860788;fill-opacity:1;stroke:none;stroke-width:0.00390625"
     d="m 28.845132,85.581566 c -0.01193,-0.04528 -0.04663,-0.186688 -0.07212,-0.293946 -0.208087,-0.875449 -0.375837,-1.773183 -0.520068,-2.783203 -0.03942,-0.276055 -0.08785,-0.636248 -0.08785,-0.6534 0,-0.0039 0.0062,-0.0049 0.02441,-0.004 l 0.02441,0.0012 0.0068,0.06445 c 0.119373,1.134987 0.33222,2.335356 0.616665,3.477745 0.02771,0.111294 0.05038,0.20314 0.05038,0.204101 0,9.62e-4 -0.0087,0.0017 -0.01938,0.0017 -0.0191,0 -0.01944,-2.08e-4 -0.02324,-0.01465 z"
     id="path1662" />
  <path
     style="fill:#860788;fill-opacity:1;stroke:none;stroke-width:0.00390625"
     d="m 29.418029,87.519013 c -0.230631,-0.686708 -0.376961,-1.175319 -0.530602,-1.771737 -0.01947,-0.07556 -0.03629,-0.140563 -0.0374,-0.144442 -0.0018,-0.0063 3.15e-4,-0.0069 0.01867,-0.0059 l 0.02068,0.0012 0.01882,0.07227 c 0.17072,0.655617 0.377649,1.335704 0.604182,1.985688 0.02384,0.0684 0.04334,0.125088 0.04334,0.125977 0,8.89e-4 -0.01099,0.0016 -0.02441,0.0016 l -0.02441,-5.2e-5 z"
     id="path1664" />
  <path
     style="fill:#860788;fill-opacity:1;stroke:none;stroke-width:0.00390625"
     d="m 29.878612,90.208519 c -0.0014,-0.213233 -0.0043,-0.44834 -0.0065,-0.522461 -0.0198,-0.694406 -0.07582,-1.005273 -0.314708,-1.74649 -0.02673,-0.08293 -0.0486,-0.151926 -0.0486,-0.15332 0,-0.0014 0.01099,-0.0025 0.02441,-0.0024 l 0.02441,8.5e-5 0.03859,0.108314 c 0.07001,0.196498 0.181434,0.49278 0.269654,0.717037 0.03368,0.08562 0.03845,0.100414 0.02782,0.08636 -0.005,-0.0067 -0.0058,0.106758 -0.0059,0.946519 -6.8e-5,0.524756 -0.0016,0.954102 -0.0034,0.954102 -0.0018,0 -0.0044,-0.174463 -0.0059,-0.387695 z"
     id="path1666" />
  <path
     style="fill:#860788;fill-opacity:1;stroke:none;stroke-width:0.00390625"
     d="m 29.454267,93.969835 c 0.146918,-0.354405 0.271413,-0.78358 0.314042,-1.082605 0.05759,-0.403954 0.09972,-1.19791 0.110128,-2.075469 0.0015,-0.123149 0.0041,-0.221587 0.0059,-0.21875 0.0048,0.0076 0.0042,1.801141 -6.63e-4,1.893828 -0.02477,0.47149 -0.14195,0.98795 -0.343665,1.514648 l -0.01234,0.03223 h -0.04995 -0.04996 z"
     id="path1668" />
  <path
     style="fill:#860788;fill-opacity:1;stroke:none;stroke-width:0.00390625"
     d=""
     id="path1670" />
  <path
     style="fill:#860788;fill-opacity:1;stroke:none;stroke-width:0.00390625"
     d="m 28.032284,96.219247 c 0,-0.0011 0.02046,-0.02525 0.04547,-0.05371 0.537704,-0.611902 1.017754,-1.362717 1.323692,-2.070299 l 0.0266,-0.06152 h 0.0499 0.04989 l -0.03441,0.08496 c -0.257101,0.634711 -0.628359,1.266718 -1.069872,1.821289 -0.06174,0.07755 -0.151393,0.185402 -0.205379,0.24707 l -0.02992,0.03418 h -0.07798 c -0.04289,0 -0.07798,-8.85e-4 -0.07798,-0.002 z"
     id="path1672" />
  <path
     style="fill:#860788;fill-opacity:1;stroke:none;stroke-width:0.00390625"
     d="m 24.393612,98.123444 c -0.294736,-0.01862 -0.538728,-0.04737 -0.801758,-0.09447 l -0.09082,-0.01626 v -0.02856 c 0,-0.01571 0.0013,-0.02856 0.0029,-0.02855 0.0016,4e-6 0.03716,0.0071 0.07899,0.01578 0.391436,0.08117 0.812503,0.09958 1.240341,0.05424 0.544508,-0.0577 1.083788,-0.217395 1.554687,-0.460374 0.367647,-0.189702 0.733212,-0.452025 1.121094,-0.804475 0.08893,-0.08081 0.365574,-0.358409 0.454975,-0.456553 l 0.07561,-0.08301 h 0.07986 0.07985 l -0.03255,0.03613 c -0.391865,0.43497 -0.786317,0.782377 -1.216341,1.071268 -0.312109,0.209676 -0.620211,0.37323 -0.949218,0.503884 -0.405868,0.161177 -0.792441,0.252109 -1.212891,0.285302 -0.09174,0.0072 -0.309015,0.01043 -0.384766,0.0056 z"
     id="path1674" />
  <path
     style="fill:#860788;fill-opacity:1;stroke:none;stroke-width:0.00390625"
     d="m 23.385297,97.988543 c -0.513204,-0.111421 -0.982067,-0.271811 -1.455078,-0.497757 -0.09825,-0.04693 -0.13682,-0.06655 -0.259766,-0.132105 -0.460819,-0.245723 -0.907481,-0.562091 -1.308594,-0.926871 -0.09087,-0.08264 -0.273314,-0.262965 -0.359298,-0.355127 -0.216908,-0.232494 -0.401633,-0.459913 -0.580641,-0.714844 -0.02037,-0.029 -0.03836,-0.05493 -0.03999,-0.05762 -0.0023,-0.0038 0.01202,-0.0049 0.06679,-0.0049 h 0.06975 l 0.03099,0.04394 c 0.04612,0.06541 0.161772,0.219205 0.216635,0.288086 0.58741,0.737504 1.263647,1.298998 2.076236,1.723943 0.476393,0.249131 1.042044,0.457139 1.575696,0.579433 l 0.08243,0.01889 3.9e-5,0.02832 c 3.9e-5,0.02685 -4.16e-4,0.02831 -0.0088,0.02806 -0.0048,-1.46e-4 -0.05273,-0.0098 -0.106445,-0.02147 z"
     id="path1676" />
  <path
     style="fill:#860788;fill-opacity:1;stroke:none;stroke-width:0.00390625"
     d="m 18.416908,93.114769 c -0.05356,-0.22957 -0.09882,-0.486309 -0.1255,-0.711914 -0.0076,-0.0642 -0.0079,-0.08992 -0.0079,-0.772461 l -1.8e-5,-0.706055 h 0.07813 0.07813 v 1.138672 c 0,0.626269 -5.81e-4,1.138672 -0.0013,1.138672 -7.11e-4,0 -0.01042,-0.03911 -0.02157,-0.08691 z"
     id="path1678" />
  <path
     style="fill:#860788;fill-opacity:1;stroke:none;stroke-width:0.00390625"
     d="m 19.315818,95.204612 c -0.355265,-0.539838 -0.625136,-1.122227 -0.807625,-1.742877 -0.01196,-0.04066 -0.02123,-0.07545 -0.02061,-0.07731 6.2e-4,-0.0019 0.08533,0.17467 0.188233,0.392291 0.258878,0.547454 0.349534,0.726732 0.491437,0.971847 0.0917,0.158403 0.209739,0.345631 0.309678,0.491211 l 0.04089,0.05957 h -0.06983 -0.06983 z"
     id="path1680" />
  <path
     style="fill:#860788;fill-opacity:1;stroke:none;stroke-width:0.00390625"
     d="m 18.283521,89.830589 v -1.09375 h 0.07813 0.07813 v 1.09375 1.09375 h -0.07813 -0.07813 z"
     id="path1682" />
  <path
     style="fill:#860788;fill-opacity:1;stroke:none;stroke-width:0.00390625"
     d="m 18.283521,87.643089 v -1.09375 h 0.07813 0.07813 v 1.09375 1.09375 h -0.07813 -0.07813 z"
     id="path1684" />
  <path
     style="fill:#860788;fill-opacity:1;stroke:none;stroke-width:0.00390625"
     d="m 18.283521,85.768089 v -0.78125 h 0.07813 0.07813 v 0.78125 0.78125 h -0.07813 -0.07813 z"
     id="path1686" />
  <path
     style="fill:#860788;fill-opacity:1;stroke:none;stroke-width:0.00390625"
     d="m 18.283521,83.580589 v -1.40625 h 0.07813 0.07813 v 1.40625 1.40625 h -0.07813 -0.07813 z"
     id="path1688" />
  <path
     style="fill:#860788;fill-opacity:1;stroke:none;stroke-width:0.00390625"
     d="m 18.283521,80.299339 v -1.875 h 0.07813 0.07813 v 1.875 1.875 h -0.07813 -0.07813 z"
     id="path1690" />
  <path
     style="fill:#860788;fill-opacity:1;stroke:none;stroke-width:0.00390625"
     d="m 18.283521,76.861839 v -1.5625 h 0.07813 0.07813 v 1.5625 1.5625 h -0.07813 -0.07813 z"
     id="path1692" />
  <path
     style="fill:#860788;fill-opacity:1;stroke:none;stroke-width:0.00390625"
     d="m 18.283521,73.424339 v -1.875 h 0.07813 0.07813 v 1.875 1.875 h -0.07813 -0.07813 z"
     id="path1694" />
  <path
     style="fill:#860788;fill-opacity:1;stroke:none;stroke-width:0.00390625"
     d="m 18.283521,69.674339 v -1.875 h 0.07813 0.07813 v 1.875 1.875 h -0.07813 -0.07813 z"
     id="path1696" />
  <path
     style="fill:#860788;fill-opacity:1;stroke:none;stroke-width:0.00390625"
     d="m 18.281406,66.173362 c -0.0013,-0.894287 -0.0025,-1.704199 -0.0026,-1.799804 -3.25e-4,-0.210394 0.0081,-0.352271 0.03343,-0.564453 l 0.0084,-0.07031 0.05957,-0.0011 0.05957,-0.0011 v 2.031351 2.031352 h -0.07801 -0.07801 z"
     id="path1698" />
  <path
     style="fill:#860788;fill-opacity:1;stroke:none;stroke-width:0.00390625"
     d="m 18.322584,63.730534 c 0,-0.01251 0.02425,-0.165209 0.03747,-0.235882 0.01719,-0.09194 0.04453,-0.219114 0.06383,-0.296875 l 0.01503,-0.06055 4.31e-4,0.297433 c 3.88e-4,0.267871 -1.83e-4,0.29767 -0.0057,0.299805 -0.0034,0.0013 -0.02977,0.0024 -0.05859,0.0024 -0.04563,0 -0.05241,-8.16e-4 -0.05241,-0.0063 z"
     id="path1700" />
  <path
     style="fill:#860788;fill-opacity:1;stroke:none;stroke-width:0.00390625"
     d="m 18.447584,63.106798 c 0,-0.0097 0.04777,-0.174544 0.07665,-0.26449 0.119641,-0.372678 0.294322,-0.756737 0.495701,-1.089861 0.176101,-0.29131 0.366947,-0.547697 0.604784,-0.812483 0.02798,-0.03115 0.112062,-0.117725 0.186846,-0.192383 l 0.135971,-0.135742 0.0635,9.8e-5 0.0635,9.7e-5 -0.01758,0.01613 c -0.196606,0.180465 -0.323353,0.312308 -0.471622,0.490581 -0.180786,0.217371 -0.370265,0.497761 -0.527235,0.780198 -0.07483,0.134644 -0.119021,0.221798 -0.362452,0.714844 -0.134715,0.272852 -0.24564,0.496826 -0.246501,0.497722 -8.61e-4,8.95e-4 -0.0016,-0.0012 -0.0016,-0.0047 z"
     id="path1702" />
  <path
     style="fill:#860788;fill-opacity:1;stroke:none;stroke-width:0.00390625"
     d="m 19.961557,60.602487 c 0.04713,-0.04555 0.215712,-0.1884 0.301918,-0.255839 0.825945,-0.646141 1.820329,-1.024985 2.871822,-1.094117 0.06373,-0.0042 0.274698,-0.01162 0.333007,-0.01173 l 0.03223,-6e-5 v 0.05445 0.05445 l -0.0166,0.002 c -0.0091,0.0011 -0.06846,0.0039 -0.131835,0.0063 -0.88027,0.0327 -1.246801,0.103478 -1.796875,0.346984 -0.595874,0.263781 -1.043496,0.534401 -1.430332,0.864739 l -0.04947,0.04225 h -0.06177 -0.06177 z"
     id="path1704" />
  <path
     style="fill:#860788;fill-opacity:1;stroke:none;stroke-width:0.00390625"
     d="m 108.13065,62.81156 c -0.15059,-0.3735 -0.18956,-0.46477 -0.26639,-0.623798 -0.377,-0.78032 -0.93015,-1.436191 -1.61643,-1.916594 -0.78425,-0.548989 -1.73471,-0.883514 -2.85546,-1.005018 -0.51033,-0.05533 -1.04521,-0.03264 -1.56173,0.06625 -0.0221,0.0042 -0.041,0.0077 -0.042,0.0077 -9.6e-4,0 -0.002,-0.0167 -0.002,-0.03711 0,-0.02041 4.4e-4,-0.03711 9.7e-4,-0.03711 5.4e-4,0 0.0142,-0.0025 0.0303,-0.0056 0.16084,-0.03077 0.41956,-0.06317 0.62695,-0.0785 0.17278,-0.01277 0.41566,-0.01126 0.6875,0.0043 1.51425,0.08649 2.75793,0.559903 3.67765,1.399907 0.064,0.05842 0.229,0.223399 0.28558,0.28549 0.37119,0.407284 0.66062,0.862166 0.88308,1.387866 0.0972,0.229754 0.18662,0.496551 0.2552,0.761672 0.0121,0.04685 0.0215,0.08756 0.0208,0.09048 -6.8e-4,0.0029 -0.0566,-0.132039 -0.12427,-0.299897 z"
     id="path1706" />
  <path
     style="fill:#860788;fill-opacity:1;stroke:none;stroke-width:0.00390625"
     d="m 108.32458,66.085223 c -10e-4,-0.365771 -0.003,-1.117676 -0.004,-1.670898 l -0.002,-1.00586 0.01,0.05078 c 0.0412,0.216942 0.073,0.49837 0.0921,0.816406 0.006,0.102266 0.01,0.720703 0.004,0.720703 -0.003,0 -0.004,0.237083 -0.004,0.876953 v 0.876953 h -0.0463 -0.0463 z"
     id="path1708" />
  <path
     style="fill:#860788;fill-opacity:1;stroke:none;stroke-width:0.00390625"
     d="m 108.32986,68.415301 c 0,-0.287353 -10e-4,-0.779541 -0.003,-1.09375 l -0.003,-0.571289 h 0.0475 0.0475 v 1.09375 1.09375 h -0.0449 -0.0449 z"
     id="path1710" />
  <path
     style="fill:#860788;fill-opacity:1;stroke:none;stroke-width:0.00390625"
     d="m 108.33625,70.509051 c -0.001,-0.682666 -0.003,-1.315478 -0.004,-1.40625 l -0.001,-0.165039 h 0.0444 0.0444 v 1.40625 1.40625 h -0.0405 -0.0405 z"
     id="path1712" />
  <path
     style="fill:#860788;fill-opacity:1;stroke:none;stroke-width:0.00390625"
     d="m 108.34804,75.104754 c -10e-4,-0.389404 -0.003,-1.169433 -0.005,-1.733398 -0.001,-0.563965 -0.003,-1.159424 -0.004,-1.323242 l -0.002,-0.297852 h 0.0413 0.0413 v 2.03125 2.03125 h -0.0346 -0.0346 z"
     id="path1714" />
  <path
     style="fill:#00a1d8;fill-opacity:1;stroke:none;stroke-width:0.00390625"
     d="m 108.35576,78.050067 c -0.001,-0.488233 -0.004,-1.191358 -0.005,-1.5625 l -0.002,-0.674805 h 0.0357 0.0357 v 1.5625 1.5625 h -0.0307 -0.0307 z"
     id="path1716" />
  <path
     style="fill:#00a1d8;fill-opacity:1;stroke:none;stroke-width:0.00390625"
     d="m 108.45288,75.411432 c 0.0144,-7.5e-4 0.039,-7.55e-4 0.0547,-1.1e-5 0.0157,7.43e-4 0.004,0.0014 -0.0262,0.0014 -0.0301,7e-6 -0.0429,-6.02e-4 -0.0285,-0.0014 z"
     id="path1718" />
  <path
     style="fill:#00a1d8;fill-opacity:1;stroke:none;stroke-width:0.00390625"
     d="m 108.47259,75.411632 c 0.004,-9.83e-4 0.01,-9.83e-4 0.0137,0 0.004,9.83e-4 6.8e-4,0.0018 -0.007,0.0018 -0.008,0 -0.0106,-8.03e-4 -0.007,-0.0018 z"
     id="path1720" />
  <path
     style="fill:#00a1d8;fill-opacity:1;stroke:none;stroke-width:0.00390625"
     d=""
     id="path1722" />
  <path
     style="fill:#00a1d8;fill-opacity:1;stroke:none;stroke-width:0.00390625"
     d="m 108.42277,75.039325 c 0,-1.457715 4.4e-4,-1.974073 9.9e-4,-1.147461 l 9.8e-4,1.502929 h 0.0566 c 0.054,0 0.0566,3.6e-4 0.0566,0.0078 0,0.0075 -0.003,0.0078 -0.0566,0.0078 h -0.0566 l -9.9e-4,1.139649 c -5.5e-4,0.626806 -9.9e-4,-0.05303 -9.9e-4,-1.510742 z"
     id="path1724" />
  <path
     style="fill:#860788;fill-opacity:1;stroke:none;stroke-width:0.00390625"
     d="m 108.42473,75.402623 v -0.009 l 0.0531,0.0022 c 0.0499,0.0021 0.0606,0.0038 0.0555,0.0089 -0.001,0.0012 -0.0261,0.0032 -0.0553,0.0045 l -0.0532,0.0024 z"
     id="path1726" />
  <path
     style="fill:#860788;fill-opacity:1;stroke:none;stroke-width:0.00390625"
     d="m 108.3608,78.850848 c -10e-4,-0.0478 -0.003,-0.50791 -0.004,-1.022461 -0.001,-0.514551 -0.003,-1.178564 -0.005,-1.475586 l -0.003,-0.540039 h 0.0338 0.0338 v 1.5625 1.5625 h -0.0269 -0.0269 z"
     id="path1728" />
  <path
     style="fill:#860788;fill-opacity:1;stroke:none;stroke-width:0.00390625"
     d="m 108.36223,82.024349 c 0,-0.536752 -10e-4,-1.450815 -0.003,-2.03125 l -0.003,-1.055337 h 0.0299 0.0299 v 2.03125 2.03125 h -0.0273 -0.0273 z"
     id="path1730" />
  <path
     style="fill:#860788;fill-opacity:1;stroke:none;stroke-width:0.00390625"
     d="m 108.36234,84.562762 2e-5,-1.5625 h 0.0273 0.0273 v 1.5625 1.5625 h -0.0273 -0.0273 l 2e-5,-1.5625 z"
     id="path1732" />
  <path
     style="fill:#860788;fill-opacity:1;stroke:none;stroke-width:0.00390625"
     d="m 108.34811,89.501239 c 0.006,-0.819793 0.01,-1.638858 0.0126,-2.486328 l 0.003,-0.889649 h 0.0268 0.0268 v 1.875 1.875 h -0.0358 -0.0357 z"
     id="path1734" />
  <path
     style="fill:#860788;fill-opacity:1;stroke:none;stroke-width:0.00390625"
     d="m 108.28417,92.669207 c 3e-5,-0.0102 0.002,-0.04844 0.004,-0.08496 0.0221,-0.391371 0.0459,-1.461876 0.0528,-2.373047 0.001,-0.15791 0.003,-0.298096 0.004,-0.311524 l 0.002,-0.02441 h 0.0349 0.0348 v 1.0625 c 0,0.94184 6.7e-4,1.0625 0.006,1.0625 0.005,0 0.006,0.02028 0.006,0.15918 -3e-5,0.179352 -0.003,0.219407 -0.0276,0.438476 -0.004,0.0376 -0.009,0.07319 -0.01,0.0791 l -0.002,0.01074 h -0.0524 -0.0524 z"
     id="path1736" />
  <path
     style="fill:#860788;fill-opacity:1;stroke:none;stroke-width:0.00390625"
     d="m 107.56536,94.86744 c 0.002,-0.0044 0.0245,-0.04446 0.0491,-0.08898 0.27178,-0.490654 0.47931,-1.037214 0.5988,-1.57703 0.0429,-0.193886 0.0566,-0.293285 0.0679,-0.494141 l 9.9e-4,-0.01758 0.0537,-0.0011 c 0.0295,-5.97e-4 0.0537,-1.87e-4 0.0537,9.12e-4 0,0.0077 -0.0224,0.15518 -0.0336,0.220878 -0.11236,0.660804 -0.34235,1.332822 -0.65105,1.902344 l -0.0328,0.06055 -0.0555,0.0011 c -0.055,0.0011 -0.0555,0.001 -0.0512,-0.007 z"
     id="path1738" />
  <path
     style="fill:#860788;fill-opacity:1;stroke:none;stroke-width:0.00390625"
     d="m 102.93429,97.99748 c 0.32322,-0.05688 0.62378,-0.122475 0.84375,-0.184137 0.92375,-0.258947 1.78102,-0.729117 2.50781,-1.375402 0.12208,-0.108555 0.28806,-0.269988 0.40201,-0.390993 0.3216,-0.341497 0.61608,-0.733252 0.84257,-1.120905 l 0.0308,-0.05273 0.0537,0.0011 c 0.0295,5.98e-4 0.0537,0.002 0.0537,0.0031 0,0.0067 -0.10381,0.183429 -0.16733,0.284875 -0.37531,0.599402 -0.84632,1.128724 -1.39712,1.5701 -0.62423,0.500215 -1.33595,0.87456 -2.10594,1.107678 -0.19152,0.05798 -0.36613,0.101937 -0.5731,0.144267 l -0.0775,0.01585 -0.21159,-5.32e-4 c -0.11637,-2.92e-4 -0.20718,-0.0013 -0.20181,-0.0023 z"
     id="path1740" />
  <path
     style="fill:#860788;fill-opacity:1;stroke:none;stroke-width:0.00390625"
     d="m 102.11783,98.107173 c -0.84016,-0.02448 -1.66113,-0.312205 -2.439592,-0.854999 -0.799602,-0.557532 -1.521182,-1.366211 -2.050134,-2.297595 -0.01854,-0.03265 -0.03371,-0.06033 -0.03371,-0.06152 0,-0.0012 0.02078,-0.0022 0.04617,-0.0022 h 0.04617 l 0.04545,0.07793 c 0.336458,0.576892 0.782321,1.138842 1.278233,1.611039 0.586512,0.558465 1.246203,0.987363 1.883413,1.224502 0.33589,0.125004 0.75139,0.222628 1.07558,0.252711 0.0923,0.0086 0.31335,0.01183 0.41212,0.0061 0.14565,-0.0085 0.31348,-0.02718 0.46924,-0.05231 l 0.0776,-0.01252 0.20312,0.002 0.20313,0.002 -0.0727,0.01272 c -0.25753,0.04507 -0.5401,0.07575 -0.7984,0.08667 -0.10352,0.0044 -0.28578,0.0073 -0.34571,0.0056 z"
     id="path1742" />
  <path
     style="fill:#860788;fill-opacity:1;stroke:none;stroke-width:0.00390625"
     d="m 97.565797,94.843004 c -0.359004,-0.660669 -0.600614,-1.340721 -0.696326,-1.959929 -0.03365,-0.217724 -0.04434,-0.356029 -0.04791,-0.620118 l -0.0025,-0.18457 h 0.04103 0.04103 l 0.0027,0.08691 c 0.01073,0.346185 0.03462,0.626173 0.07305,0.856446 0.05562,0.333174 0.19946,0.793526 0.374619,1.198907 0.07691,0.178 0.192144,0.412604 0.284596,0.579413 l 0.05034,0.09082 -0.04732,-3.1e-5 -0.04732,-3.1e-5 -0.02598,-0.04782 z"
     id="path1744" />
  <path
     style="fill:#860788;fill-opacity:1;stroke:none;stroke-width:0.00390625"
     d="m 96.820297,90.984637 v -1.09375 h 0.03966 0.03966 l -0.0025,0.04785 c -0.0053,0.100695 -0.0077,1.516107 -0.003,1.813476 0.0025,0.161133 0.0056,0.30044 0.0069,0.309571 l 0.0023,0.0166 h -0.04146 -0.04146 z"
     id="path1746" />
  <path
     style="fill:#860788;fill-opacity:1;stroke:none;stroke-width:0.00390625"
     d="m 96.820297,88.172137 v -1.71875 h 0.06278 0.06278 l -0.0024,0.06738 c -0.0039,0.111343 -0.01829,0.990237 -0.02555,1.561523 -0.0022,0.17295 -0.0057,0.446289 -0.0077,0.607422 -0.0021,0.161133 -0.0059,0.497315 -0.0085,0.747071 l -0.0048,0.454101 h -0.03831 -0.03831 z"
     id="path1748" />
  <path
     style="fill:#860788;fill-opacity:1;stroke:none;stroke-width:0.00390625"
     d="m 96.819335,85.374286 -9.91e-4,-1.079102 0.02039,-0.103516 c 0.02726,-0.138428 0.05977,-0.316555 0.07913,-0.433593 0.0087,-0.05264 0.01682,-0.100537 0.01804,-0.106446 l 0.0022,-0.01074 h 0.0407 0.04071 l -3.9e-5,0.03027 c -2.2e-5,0.01665 -0.0018,0.07334 -0.0038,0.125976 -0.0064,0.161925 -0.02296,0.692854 -0.03515,1.128906 -0.0093,0.332845 -0.02168,0.849486 -0.03363,1.403321 l -0.0027,0.124023 h -0.06193 -0.06193 z"
     id="path1750" />
  <path
     style="fill:#860788;fill-opacity:1;stroke:none;stroke-width:0.00390625"
     d="m 96.938806,83.629401 c 0.0013,-0.0063 0.0093,-0.05861 0.01791,-0.11621 0.04131,-0.277065 0.07511,-0.571553 0.103917,-0.905507 0.01076,-0.124783 0.01039,-0.09746 -0.002,0.144531 -0.0093,0.181193 -0.0255,0.560182 -0.03138,0.732422 -0.0023,0.06768 -0.0051,0.130518 -0.0062,0.139649 l -0.002,0.0166 h -0.04126 -0.04126 z"
     id="path1752" />
  <path
     style="fill:#860788;fill-opacity:1;stroke:none;stroke-width:0.00390625"
     d="m 97.088579,82.183856 c 9.12e-4,-0.03545 0.0035,-0.103125 0.0057,-0.150391 0.0022,-0.04727 0.0054,-0.233593 0.007,-0.414062 l 0.0029,-0.328125 0.02215,-0.192914 c 0.06588,-0.573889 0.149377,-1.461816 0.207761,-2.20943 0.0099,-0.126758 0.0188,-0.234424 0.01977,-0.239258 0.0015,-0.0075 0.0043,-0.0088 0.01928,-0.0088 h 0.0175 l -4e-6,0.01465 c -5e-6,0.01768 -0.04604,0.617499 -0.07608,0.991211 -0.05879,0.731525 -0.113279,1.356862 -0.204893,2.351562 -0.01068,0.116016 -0.02017,0.219727 -0.02107,0.230469 -9.05e-4,0.01074 -8.98e-4,-0.0095 1.5e-5,-0.04492 z"
     id="path1754" />
  <path
     style="fill:#860788;fill-opacity:1;stroke:none;stroke-width:0.00390625"
     d="m 97.355455,78.632098 c 10e-7,-0.0048 0.007,-0.101074 0.01549,-0.213867 0.04141,-0.548136 0.08934,-1.255963 0.127093,-1.876953 0.0012,-0.01934 0.0032,-0.04702 0.0044,-0.06152 l 0.0023,-0.02637 h 0.01947 0.01947 l -0.0024,0.02832 c -0.0013,0.01558 -0.01031,0.152247 -0.01995,0.303711 -0.02954,0.463957 -0.06418,0.970577 -0.101496,1.484375 -0.0096,0.132129 -0.01955,0.269678 -0.02213,0.305664 l -0.0047,0.06543 h -0.01875 c -0.01684,0 -0.01875,-8.95e-4 -0.01874,-0.0088 z"
     id="path1756" />
  <path
     style="fill:#860788;fill-opacity:1;stroke:none;stroke-width:0.00390625"
     d="m 97.503894,76.448504 c 2e-6,-0.0027 0.0043,-0.07607 0.0097,-0.163086 0.02493,-0.408585 0.07002,-1.233177 0.09771,-1.787109 0.01482,-0.296444 0.04103,-0.839531 0.04105,-0.850586 1.2e-5,-0.0058 0.0038,-0.0068 0.02375,-0.0068 h 0.02373 l -0.0023,0.03418 c -0.0013,0.0188 -0.0067,0.124707 -0.01212,0.235351 -0.03086,0.635344 -0.08646,1.634702 -0.130744,2.34961 -0.0064,0.103125 -0.01162,0.188818 -0.01162,0.190429 -5e-6,0.0016 -0.0088,0.0029 -0.01954,0.0029 -0.01302,0 -0.01953,-0.0016 -0.01953,-0.0049 z"
     id="path1758" />
  <path
     style="fill:#860788;fill-opacity:1;stroke:none;stroke-width:0.00390625"
     d="m 97.654122,73.606707 c 0.005,-0.07224 0.05487,-1.229873 0.06849,-1.59082 0.0045,-0.119238 0.0091,-0.224267 0.0102,-0.233398 l 0.002,-0.0166 h 0.02377 0.02377 l -0.0027,0.06738 c -0.01398,0.352131 -0.04749,1.109933 -0.06886,1.557301 -0.0064,0.134103 -0.01165,0.245285 -0.01165,0.24707 0,0.0018 -0.01068,0.0032 -0.02373,0.0032 h -0.02373 z"
     id="path1760" />
  <path
     style="fill:#860788;fill-opacity:1;stroke:none;stroke-width:0.00390625"
     d="m 97.735761,71.700457 c 0.01883,-0.474594 0.065,-1.748234 0.065,-1.792952 v -0.01662 h 0.02539 c 0.01396,0 0.02539,7.98e-4 0.02539,0.0018 0,0.02748 -0.04066,1.153916 -0.05267,1.459166 -0.0032,0.08057 -0.0076,0.197461 -0.0099,0.259765 -0.0023,0.0623 -0.0051,0.12251 -0.0062,0.133789 l -0.0021,0.02051 h -0.02375 -0.02375 z"
     id="path1762" />
  <path
     style="fill:#860788;fill-opacity:1;stroke:none;stroke-width:0.00390625"
     d="m 97.802413,69.854754 c 0.0012,-0.01987 0.0031,-0.06514 0.0042,-0.100586 0.03039,-0.933826 0.05336,-1.697177 0.07407,-2.460937 0.0053,-0.196582 0.01086,-0.395654 0.01229,-0.442383 l 0.0026,-0.08496 h 0.02149 0.02149 l -0.0026,0.102539 c -0.0014,0.0564 -0.007,0.280957 -0.01226,0.499024 -0.01803,0.742227 -0.04012,1.526513 -0.06242,2.216463 -0.0053,0.165247 -0.0097,0.301917 -0.0097,0.303711 0,0.0018 -0.01153,0.0033 -0.02563,0.0033 h -0.02563 z"
     id="path1764" />
  <path
     style="fill:#860788;fill-opacity:1;stroke:none;stroke-width:0.00390625"
     d="m 97.896236,66.702411 c 0.0025,-0.06578 0.0084,-0.294404 0.02168,-0.84668 0.01699,-0.703929 0.02993,-1.28494 0.04282,-1.921875 0.0042,-0.209473 0.0089,-0.431397 0.0103,-0.493164 l 0.0026,-0.112305 h 0.01708 0.01708 l -5e-6,0.02051 c -6e-6,0.02173 -0.04529,2.280126 -0.05845,2.915039 -0.0043,0.20625 -0.0089,0.403564 -0.01023,0.438477 l -0.0025,0.06348 h -0.02142 -0.02142 l 0.0024,-0.06348 z"
     id="path1766" />
  <path
     style="fill:#860788;fill-opacity:1;stroke:none;stroke-width:0.00390625"
     d="m 97.974233,63.247332 c 0.0023,-0.07489 0.01183,-0.589602 0.02307,-1.24707 0.004,-0.233538 0.0054,-0.271484 0.01035,-0.271484 0.0031,0 0.01225,-0.0094 0.02024,-0.02079 l 0.01452,-0.02078 -0.0018,0.05008 c -9.98e-4,0.02755 -0.0079,0.368247 -0.01531,0.757114 -0.0074,0.388867 -0.01458,0.735595 -0.01591,0.770508 l -0.0024,0.06348 h -0.01762 -0.01762 z"
     id="path1768" />
  <path
     style="fill:#860788;fill-opacity:1;stroke:none;stroke-width:0.00390625"
     d="m 98.04686,61.682862 c 0,-0.0076 0.13934,-0.196494 0.218209,-0.295881 0.373092,-0.470157 0.817206,-0.881748 1.309135,-1.213267 0.231436,-0.155969 0.426836,-0.269612 0.677736,-0.394164 0.19852,-0.09855 0.37076,-0.173422 0.56445,-0.245353 0.0602,-0.02237 0.21705,-0.0769 0.22113,-0.0769 8.4e-4,0 0.002,0.0189 0.001,0.04199 l -4e-5,0.04199 -0.0654,0.02298 c -0.65601,0.230571 -1.290693,0.591196 -1.819138,1.033627 -0.20693,0.173249 -0.282162,0.247064 -1.076923,1.056643 -0.01686,0.01717 -0.03065,0.02992 -0.03065,0.02833 z"
     id="path1770" />
  <path
     style="fill:#860788;fill-opacity:1;stroke:none;stroke-width:0.00390625"
     d="m 101.04055,59.497528 0.001,-0.0418 0.0469,-0.0152 c 0.11997,-0.03891 0.34908,-0.100737 0.48632,-0.131232 0.0506,-0.01125 0.20581,-0.04341 0.20946,-0.04341 9.7e-4,0 0.001,0.01709 6.5e-4,0.03797 l -0.001,0.03797 -0.0176,0.0033 c -0.16737,0.03162 -0.45239,0.106304 -0.64311,0.168517 -0.0433,0.01411 -0.0798,0.02566 -0.0812,0.02566 -0.001,0 -0.002,-0.01881 -0.001,-0.0418 z"
     id="path1772" />
</svg>
